<mxfile host="app.diagrams.net" modified="2023-04-11T16:23:01.663Z" agent="Mozilla/5.0 (Windows NT 10.0; Win64; x64) AppleWebKit/537.36 (KHTML, like Gecko) Chrome/112.0.0.0 Safari/537.36 Edg/112.0.1722.34" etag="MjY1jv4ZBDLoYOlWHeFQ" version="21.1.5" type="github">
  <diagram id="IMoWFRzWkRb1YAJqIgc9" name="Page-1">
    <mxGraphModel dx="1829" dy="870" grid="1" gridSize="10" guides="1" tooltips="1" connect="1" arrows="1" fold="1" page="1" pageScale="1" pageWidth="1920" pageHeight="1200" math="0" shadow="1">
      <root>
        <mxCell id="0" />
        <mxCell id="1" parent="0" />
        <mxCell id="REOEvnUnP1cKmhOiyPTP-1" value="&lt;font style=&quot;font-size: 12px;&quot;&gt;Padronização de resposta de capabilidade MMT&lt;/font&gt;" style="swimlane;childLayout=stackLayout;resizeParent=1;resizeParentMax=0;horizontal=0;startSize=20;horizontalStack=0;html=1;rounded=0;fontSize=10;" parent="1" vertex="1">
          <mxGeometry x="10" y="10" width="4580" height="1780" as="geometry">
            <mxRectangle x="110" y="90" width="40" height="60" as="alternateBounds" />
          </mxGeometry>
        </mxCell>
        <mxCell id="v3_SV2aUN1-4RCRF9CUd-7" style="edgeStyle=orthogonalEdgeStyle;rounded=0;orthogonalLoop=1;jettySize=auto;html=1;exitX=0.5;exitY=1;exitDx=0;exitDy=0;fontSize=10;entryX=0.5;entryY=0;entryDx=0;entryDy=0;exitPerimeter=0;" parent="REOEvnUnP1cKmhOiyPTP-1" source="BcPstPzpljA3nbRgEFQv-4" target="Oy1cbulnrsk7dN2Pcbd7-12" edge="1">
          <mxGeometry relative="1" as="geometry">
            <mxPoint x="180" y="120" as="targetPoint" />
            <mxPoint x="170" y="152" as="sourcePoint" />
          </mxGeometry>
        </mxCell>
        <mxCell id="7S2bCDqArC1DxhJI_XL0-94" style="edgeStyle=orthogonalEdgeStyle;rounded=0;orthogonalLoop=1;jettySize=auto;html=1;exitX=0.5;exitY=1;exitDx=0;exitDy=0;fontFamily=Helvetica;fontSize=10;fontColor=#000000;entryX=0;entryY=0.5;entryDx=0;entryDy=0;" parent="REOEvnUnP1cKmhOiyPTP-1" source="nKnNB21cNStt8jU2whA4-52" target="XgBZHDR8JV6FvFQxuWRU-4" edge="1">
          <mxGeometry relative="1" as="geometry">
            <mxPoint x="1969" y="125" as="sourcePoint" />
            <mxPoint x="2079" y="382" as="targetPoint" />
          </mxGeometry>
        </mxCell>
        <mxCell id="XgBZHDR8JV6FvFQxuWRU-44" style="edgeStyle=orthogonalEdgeStyle;rounded=0;orthogonalLoop=1;jettySize=auto;html=1;exitX=0.5;exitY=1;exitDx=0;exitDy=0;entryX=0;entryY=0.5;entryDx=0;entryDy=0;fontSize=52;fontColor=#A6A61D;" parent="REOEvnUnP1cKmhOiyPTP-1" source="nKnNB21cNStt8jU2whA4-52" target="XgBZHDR8JV6FvFQxuWRU-8" edge="1">
          <mxGeometry relative="1" as="geometry" />
        </mxCell>
        <mxCell id="XgBZHDR8JV6FvFQxuWRU-45" style="edgeStyle=orthogonalEdgeStyle;rounded=0;orthogonalLoop=1;jettySize=auto;html=1;exitX=0.5;exitY=1;exitDx=0;exitDy=0;entryX=0;entryY=0.5;entryDx=0;entryDy=0;fontSize=52;fontColor=#A6A61D;" parent="REOEvnUnP1cKmhOiyPTP-1" source="nKnNB21cNStt8jU2whA4-52" target="XgBZHDR8JV6FvFQxuWRU-11" edge="1">
          <mxGeometry relative="1" as="geometry" />
        </mxCell>
        <mxCell id="XgBZHDR8JV6FvFQxuWRU-46" style="edgeStyle=orthogonalEdgeStyle;rounded=0;orthogonalLoop=1;jettySize=auto;html=1;exitX=0.5;exitY=1;exitDx=0;exitDy=0;entryX=0;entryY=0.5;entryDx=0;entryDy=0;fontSize=52;fontColor=#A6A61D;" parent="REOEvnUnP1cKmhOiyPTP-1" source="nKnNB21cNStt8jU2whA4-52" target="XgBZHDR8JV6FvFQxuWRU-23" edge="1">
          <mxGeometry relative="1" as="geometry" />
        </mxCell>
        <mxCell id="XgBZHDR8JV6FvFQxuWRU-31" style="edgeStyle=orthogonalEdgeStyle;rounded=0;orthogonalLoop=1;jettySize=auto;html=1;exitX=1;exitY=0.5;exitDx=0;exitDy=0;entryX=0.5;entryY=1;entryDx=0;entryDy=0;fontSize=52;fontColor=#A6A61D;entryPerimeter=0;" parent="REOEvnUnP1cKmhOiyPTP-1" source="XgBZHDR8JV6FvFQxuWRU-4" target="XgBZHDR8JV6FvFQxuWRU-29" edge="1">
          <mxGeometry relative="1" as="geometry">
            <mxPoint x="2353" y="417" as="targetPoint" />
          </mxGeometry>
        </mxCell>
        <mxCell id="XgBZHDR8JV6FvFQxuWRU-33" style="edgeStyle=orthogonalEdgeStyle;rounded=0;orthogonalLoop=1;jettySize=auto;html=1;entryX=0.5;entryY=1;entryDx=0;entryDy=0;fontSize=52;fontColor=#A6A61D;exitX=1;exitY=0.5;exitDx=0;exitDy=0;entryPerimeter=0;" parent="REOEvnUnP1cKmhOiyPTP-1" source="XgBZHDR8JV6FvFQxuWRU-8" target="XgBZHDR8JV6FvFQxuWRU-29" edge="1">
          <mxGeometry relative="1" as="geometry">
            <mxPoint x="2333" y="771" as="sourcePoint" />
            <mxPoint x="2353" y="740.5000000000002" as="targetPoint" />
          </mxGeometry>
        </mxCell>
        <mxCell id="XgBZHDR8JV6FvFQxuWRU-38" style="edgeStyle=orthogonalEdgeStyle;rounded=0;orthogonalLoop=1;jettySize=auto;html=1;exitX=1;exitY=0.5;exitDx=0;exitDy=0;entryX=0.5;entryY=1;entryDx=0;entryDy=0;fontSize=52;fontColor=#A6A61D;entryPerimeter=0;" parent="REOEvnUnP1cKmhOiyPTP-1" source="XgBZHDR8JV6FvFQxuWRU-11" target="XgBZHDR8JV6FvFQxuWRU-29" edge="1">
          <mxGeometry relative="1" as="geometry">
            <mxPoint x="2353" y="892" as="sourcePoint" />
            <mxPoint x="2353" y="880" as="targetPoint" />
          </mxGeometry>
        </mxCell>
        <mxCell id="XgBZHDR8JV6FvFQxuWRU-41" style="edgeStyle=orthogonalEdgeStyle;rounded=0;orthogonalLoop=1;jettySize=auto;html=1;exitX=1;exitY=0.5;exitDx=0;exitDy=0;entryX=0.5;entryY=1;entryDx=0;entryDy=0;fontSize=52;fontColor=#A6A61D;entryPerimeter=0;" parent="REOEvnUnP1cKmhOiyPTP-1" source="XgBZHDR8JV6FvFQxuWRU-23" target="XgBZHDR8JV6FvFQxuWRU-29" edge="1">
          <mxGeometry relative="1" as="geometry">
            <mxPoint x="2343" y="1020" as="sourcePoint" />
            <mxPoint x="2353" y="1020" as="targetPoint" />
          </mxGeometry>
        </mxCell>
        <mxCell id="75cfZj7-eQxO16BHJha4-8" style="edgeStyle=orthogonalEdgeStyle;rounded=0;orthogonalLoop=1;jettySize=auto;html=1;exitX=0.5;exitY=1;exitDx=0;exitDy=0;entryX=0;entryY=0.5;entryDx=0;entryDy=0;fontSize=52;fontColor=#A6A61D;" parent="REOEvnUnP1cKmhOiyPTP-1" source="nKnNB21cNStt8jU2whA4-52" target="75cfZj7-eQxO16BHJha4-7" edge="1">
          <mxGeometry relative="1" as="geometry">
            <mxPoint x="1989" y="322" as="sourcePoint" />
            <mxPoint x="2043" y="1191" as="targetPoint" />
          </mxGeometry>
        </mxCell>
        <mxCell id="75cfZj7-eQxO16BHJha4-9" style="edgeStyle=orthogonalEdgeStyle;rounded=0;orthogonalLoop=1;jettySize=auto;html=1;exitX=1;exitY=0.5;exitDx=0;exitDy=0;entryX=0.5;entryY=1;entryDx=0;entryDy=0;fontSize=52;fontColor=#A6A61D;entryPerimeter=0;" parent="REOEvnUnP1cKmhOiyPTP-1" source="75cfZj7-eQxO16BHJha4-7" target="XgBZHDR8JV6FvFQxuWRU-29" edge="1">
          <mxGeometry relative="1" as="geometry">
            <mxPoint x="2269" y="1146" as="sourcePoint" />
            <mxPoint x="2324" y="291" as="targetPoint" />
          </mxGeometry>
        </mxCell>
        <mxCell id="7S2bCDqArC1DxhJI_XL0-19" style="edgeStyle=orthogonalEdgeStyle;rounded=0;orthogonalLoop=1;jettySize=auto;html=1;exitX=0.5;exitY=1;exitDx=0;exitDy=0;entryX=0;entryY=0.5;entryDx=0;entryDy=0;" parent="REOEvnUnP1cKmhOiyPTP-1" source="75cfZj7-eQxO16BHJha4-1" target="7S2bCDqArC1DxhJI_XL0-9" edge="1">
          <mxGeometry relative="1" as="geometry">
            <mxPoint x="2640" y="398" as="sourcePoint" />
          </mxGeometry>
        </mxCell>
        <mxCell id="7S2bCDqArC1DxhJI_XL0-20" style="edgeStyle=orthogonalEdgeStyle;rounded=0;orthogonalLoop=1;jettySize=auto;html=1;exitX=0.5;exitY=1;exitDx=0;exitDy=0;entryX=0;entryY=0.5;entryDx=0;entryDy=0;" parent="REOEvnUnP1cKmhOiyPTP-1" source="75cfZj7-eQxO16BHJha4-1" target="7S2bCDqArC1DxhJI_XL0-10" edge="1">
          <mxGeometry relative="1" as="geometry">
            <mxPoint x="2640" y="398" as="sourcePoint" />
          </mxGeometry>
        </mxCell>
        <mxCell id="7S2bCDqArC1DxhJI_XL0-21" style="edgeStyle=orthogonalEdgeStyle;rounded=0;orthogonalLoop=1;jettySize=auto;html=1;exitX=0.5;exitY=1;exitDx=0;exitDy=0;entryX=0;entryY=0.5;entryDx=0;entryDy=0;" parent="REOEvnUnP1cKmhOiyPTP-1" source="75cfZj7-eQxO16BHJha4-1" target="7S2bCDqArC1DxhJI_XL0-11" edge="1">
          <mxGeometry relative="1" as="geometry">
            <mxPoint x="2640" y="398" as="sourcePoint" />
          </mxGeometry>
        </mxCell>
        <mxCell id="7S2bCDqArC1DxhJI_XL0-22" style="edgeStyle=orthogonalEdgeStyle;rounded=0;orthogonalLoop=1;jettySize=auto;html=1;entryX=0;entryY=0.5;entryDx=0;entryDy=0;exitX=0.5;exitY=1;exitDx=0;exitDy=0;" parent="REOEvnUnP1cKmhOiyPTP-1" source="75cfZj7-eQxO16BHJha4-1" target="7S2bCDqArC1DxhJI_XL0-12" edge="1">
          <mxGeometry relative="1" as="geometry">
            <mxPoint x="2640" y="398" as="sourcePoint" />
          </mxGeometry>
        </mxCell>
        <mxCell id="REOEvnUnP1cKmhOiyPTP-2" value="ADAF" style="swimlane;startSize=20;horizontal=0;html=1;rounded=0;" parent="REOEvnUnP1cKmhOiyPTP-1" vertex="1">
          <mxGeometry x="20" width="4560" height="320" as="geometry">
            <mxRectangle x="20" width="650" height="30" as="alternateBounds" />
          </mxGeometry>
        </mxCell>
        <mxCell id="REOEvnUnP1cKmhOiyPTP-8" style="edgeStyle=orthogonalEdgeStyle;rounded=0;orthogonalLoop=1;jettySize=auto;html=1;exitX=1;exitY=0.5;exitDx=0;exitDy=0;exitPerimeter=0;entryX=0;entryY=0.5;entryDx=0;entryDy=0;entryPerimeter=0;" parent="REOEvnUnP1cKmhOiyPTP-2" source="REOEvnUnP1cKmhOiyPTP-5" target="BcPstPzpljA3nbRgEFQv-4" edge="1">
          <mxGeometry relative="1" as="geometry">
            <mxPoint x="100" y="127" as="targetPoint" />
          </mxGeometry>
        </mxCell>
        <mxCell id="REOEvnUnP1cKmhOiyPTP-5" value="" style="strokeWidth=2;html=1;shape=mxgraph.flowchart.start_2;whiteSpace=wrap;fillColor=#d5e8d4;strokeColor=#82b366;" parent="REOEvnUnP1cKmhOiyPTP-2" vertex="1">
          <mxGeometry x="40" y="112" width="30" height="30" as="geometry" />
        </mxCell>
        <mxCell id="d9HaHP7tqBKfooOxbFVG-17" style="edgeStyle=orthogonalEdgeStyle;rounded=0;orthogonalLoop=1;jettySize=auto;html=1;exitX=0.5;exitY=0;exitDx=0;exitDy=0;entryX=0.5;entryY=1;entryDx=0;entryDy=0;entryPerimeter=0;" parent="REOEvnUnP1cKmhOiyPTP-2" source="7S2bCDqArC1DxhJI_XL0-104" target="7S2bCDqArC1DxhJI_XL0-95" edge="1">
          <mxGeometry relative="1" as="geometry" />
        </mxCell>
        <mxCell id="d9HaHP7tqBKfooOxbFVG-18" value="Não" style="edgeLabel;html=1;align=center;verticalAlign=middle;resizable=0;points=[];" parent="d9HaHP7tqBKfooOxbFVG-17" vertex="1" connectable="0">
          <mxGeometry x="0.2495" y="-1" relative="1" as="geometry">
            <mxPoint x="-1" y="8" as="offset" />
          </mxGeometry>
        </mxCell>
        <mxCell id="7S2bCDqArC1DxhJI_XL0-104" value="Continuidade do projeto?" style="rhombus;whiteSpace=wrap;html=1;strokeColor=#a6a61d;fontSize=10;fillColor=#ffffcc;" parent="REOEvnUnP1cKmhOiyPTP-2" vertex="1">
          <mxGeometry x="769" y="92.76" width="70" height="70" as="geometry" />
        </mxCell>
        <mxCell id="7S2bCDqArC1DxhJI_XL0-95" value="" style="strokeWidth=2;html=1;shape=mxgraph.flowchart.start_2;whiteSpace=wrap;fillColor=#eeaaaa;strokeColor=#9f0d0d;" parent="REOEvnUnP1cKmhOiyPTP-2" vertex="1">
          <mxGeometry x="789" y="21.76" width="30" height="30" as="geometry" />
        </mxCell>
        <mxCell id="d9HaHP7tqBKfooOxbFVG-10" style="edgeStyle=orthogonalEdgeStyle;rounded=0;orthogonalLoop=1;jettySize=auto;html=1;exitX=0;exitY=0.5;exitDx=0;exitDy=0;entryX=1;entryY=0.5;entryDx=0;entryDy=0;" parent="REOEvnUnP1cKmhOiyPTP-2" source="d9HaHP7tqBKfooOxbFVG-8" target="d9HaHP7tqBKfooOxbFVG-14" edge="1">
          <mxGeometry relative="1" as="geometry">
            <mxPoint x="538.9999999999995" y="127.76" as="targetPoint" />
          </mxGeometry>
        </mxCell>
        <mxCell id="d9HaHP7tqBKfooOxbFVG-11" value="Sim" style="edgeLabel;html=1;align=center;verticalAlign=middle;resizable=0;points=[];" parent="d9HaHP7tqBKfooOxbFVG-10" vertex="1" connectable="0">
          <mxGeometry x="-0.2163" y="-1" relative="1" as="geometry">
            <mxPoint x="1" y="1" as="offset" />
          </mxGeometry>
        </mxCell>
        <mxCell id="d9HaHP7tqBKfooOxbFVG-12" style="edgeStyle=orthogonalEdgeStyle;rounded=0;orthogonalLoop=1;jettySize=auto;html=1;exitX=1;exitY=0.5;exitDx=0;exitDy=0;entryX=0;entryY=0.5;entryDx=0;entryDy=0;" parent="REOEvnUnP1cKmhOiyPTP-2" source="d9HaHP7tqBKfooOxbFVG-8" target="7S2bCDqArC1DxhJI_XL0-104" edge="1">
          <mxGeometry relative="1" as="geometry" />
        </mxCell>
        <mxCell id="d9HaHP7tqBKfooOxbFVG-13" value="Não" style="edgeLabel;html=1;align=center;verticalAlign=middle;resizable=0;points=[];" parent="d9HaHP7tqBKfooOxbFVG-12" vertex="1" connectable="0">
          <mxGeometry x="0.1829" y="-2" relative="1" as="geometry">
            <mxPoint x="-7" y="-2" as="offset" />
          </mxGeometry>
        </mxCell>
        <mxCell id="d9HaHP7tqBKfooOxbFVG-8" value="Cabe adequação?" style="rhombus;whiteSpace=wrap;html=1;strokeColor=#a6a61d;fontSize=10;fillColor=#ffffcc;" parent="REOEvnUnP1cKmhOiyPTP-2" vertex="1">
          <mxGeometry x="633" y="92.76" width="70" height="70" as="geometry" />
        </mxCell>
        <mxCell id="d9HaHP7tqBKfooOxbFVG-16" style="edgeStyle=orthogonalEdgeStyle;rounded=0;orthogonalLoop=1;jettySize=auto;html=1;exitX=0;exitY=0.5;exitDx=0;exitDy=0;entryX=1;entryY=0.5;entryDx=0;entryDy=0;entryPerimeter=0;" parent="REOEvnUnP1cKmhOiyPTP-2" source="d9HaHP7tqBKfooOxbFVG-14" target="BcPstPzpljA3nbRgEFQv-4" edge="1">
          <mxGeometry relative="1" as="geometry">
            <mxPoint x="200" y="127" as="targetPoint" />
          </mxGeometry>
        </mxCell>
        <mxCell id="d9HaHP7tqBKfooOxbFVG-14" value="&lt;span style=&quot;font-size: 10px;&quot;&gt;Revisar proposta&lt;br&gt;&lt;/span&gt;" style="rounded=1;whiteSpace=wrap;html=1;absoluteArcSize=1;arcSize=14;strokeWidth=2;fillColor=#dae8fc;strokeColor=#6c8ebf;" parent="REOEvnUnP1cKmhOiyPTP-2" vertex="1">
          <mxGeometry x="433" y="102.76" width="100" height="50" as="geometry" />
        </mxCell>
        <mxCell id="d9HaHP7tqBKfooOxbFVG-19" value="&lt;font style=&quot;font-size: 11px;&quot;&gt;Decisão por seguir com projeto &lt;i&gt;impossible &lt;/i&gt;envolve desenvolvimento e/ou investimento&lt;/font&gt;" style="ellipse;shape=cloud;whiteSpace=wrap;html=1;fillColor=#f5f5f5;fontColor=#333333;strokeColor=#666666;shadow=0;strokeWidth=0;" parent="REOEvnUnP1cKmhOiyPTP-2" vertex="1">
          <mxGeometry x="619" y="16" width="150" height="72" as="geometry" />
        </mxCell>
        <mxCell id="d9HaHP7tqBKfooOxbFVG-21" value="" style="endArrow=none;dashed=1;html=1;rounded=0;fontSize=11;exitX=0;exitY=0;exitDx=0;exitDy=0;entryX=0.8;entryY=0.8;entryDx=0;entryDy=0;entryPerimeter=0;" parent="REOEvnUnP1cKmhOiyPTP-2" source="7S2bCDqArC1DxhJI_XL0-104" target="d9HaHP7tqBKfooOxbFVG-19" edge="1">
          <mxGeometry width="50" height="50" relative="1" as="geometry">
            <mxPoint x="999" y="241.76" as="sourcePoint" />
            <mxPoint x="1049" y="191.76" as="targetPoint" />
          </mxGeometry>
        </mxCell>
        <mxCell id="nKnNB21cNStt8jU2whA4-52" value="&lt;span style=&quot;font-size: 10px;&quot;&gt;Kick-off técnico&lt;/span&gt;" style="rounded=1;whiteSpace=wrap;html=1;absoluteArcSize=1;arcSize=14;strokeWidth=2;fillColor=#dae8fc;strokeColor=#6c8ebf;" parent="REOEvnUnP1cKmhOiyPTP-2" vertex="1">
          <mxGeometry x="1940" y="102.76" width="100" height="50" as="geometry" />
        </mxCell>
        <mxCell id="75cfZj7-eQxO16BHJha4-2" style="edgeStyle=orthogonalEdgeStyle;rounded=0;orthogonalLoop=1;jettySize=auto;html=1;exitX=1;exitY=0.5;exitDx=0;exitDy=0;exitPerimeter=0;entryX=0;entryY=0.5;entryDx=0;entryDy=0;" parent="REOEvnUnP1cKmhOiyPTP-2" source="XgBZHDR8JV6FvFQxuWRU-29" target="75cfZj7-eQxO16BHJha4-1" edge="1">
          <mxGeometry relative="1" as="geometry" />
        </mxCell>
        <mxCell id="XgBZHDR8JV6FvFQxuWRU-29" value="Atualizar riscos no portal RMA" style="shape=cylinder3;whiteSpace=wrap;html=1;boundedLbl=1;backgroundOutline=1;size=9.666666666666572;shadow=0;strokeWidth=1;fontSize=11;fillColor=#f5f5f5;strokeColor=#666666;fontColor=#333333;" parent="REOEvnUnP1cKmhOiyPTP-2" vertex="1">
          <mxGeometry x="2233" y="88" width="70" height="78" as="geometry" />
        </mxCell>
        <mxCell id="75cfZj7-eQxO16BHJha4-1" value="&lt;span style=&quot;font-size: 10px;&quot;&gt;Gerar alerta para os responsáveis&lt;/span&gt;" style="shape=parallelogram;perimeter=parallelogramPerimeter;whiteSpace=wrap;html=1;fixedSize=1;labelBackgroundColor=none;strokeColor=#6C8EBF;strokeWidth=1;fontFamily=Helvetica;fontSize=11;fontColor=#000000;fillColor=#DAE8FC;" parent="REOEvnUnP1cKmhOiyPTP-2" vertex="1">
          <mxGeometry x="2380" y="99.5" width="120" height="55" as="geometry" />
        </mxCell>
        <mxCell id="75cfZj7-eQxO16BHJha4-10" value="&lt;font style=&quot;font-size: 16px;&quot;&gt;Etapa: Firme&lt;/font&gt;" style="text;strokeColor=none;align=center;fillColor=none;html=1;verticalAlign=middle;whiteSpace=wrap;rounded=0;" parent="REOEvnUnP1cKmhOiyPTP-2" vertex="1">
          <mxGeometry x="1240" y="21.759999999999998" width="110" height="30" as="geometry" />
        </mxCell>
        <mxCell id="75cfZj7-eQxO16BHJha4-13" style="edgeStyle=orthogonalEdgeStyle;rounded=0;orthogonalLoop=1;jettySize=auto;html=1;exitX=0.5;exitY=0;exitDx=0;exitDy=0;entryX=1;entryY=0.5;entryDx=0;entryDy=0;entryPerimeter=0;fontSize=16;" parent="REOEvnUnP1cKmhOiyPTP-2" source="75cfZj7-eQxO16BHJha4-11" target="7S2bCDqArC1DxhJI_XL0-95" edge="1">
          <mxGeometry relative="1" as="geometry" />
        </mxCell>
        <mxCell id="75cfZj7-eQxO16BHJha4-16" value="Não" style="edgeLabel;html=1;align=center;verticalAlign=middle;resizable=0;points=[];fontSize=11;" parent="75cfZj7-eQxO16BHJha4-13" vertex="1" connectable="0">
          <mxGeometry x="-0.9193" y="1" relative="1" as="geometry">
            <mxPoint as="offset" />
          </mxGeometry>
        </mxCell>
        <mxCell id="75cfZj7-eQxO16BHJha4-14" style="edgeStyle=orthogonalEdgeStyle;rounded=0;orthogonalLoop=1;jettySize=auto;html=1;exitX=1;exitY=0.5;exitDx=0;exitDy=0;entryX=0;entryY=0.5;entryDx=0;entryDy=0;fontSize=16;entryPerimeter=0;" parent="REOEvnUnP1cKmhOiyPTP-2" source="75cfZj7-eQxO16BHJha4-11" target="BcPstPzpljA3nbRgEFQv-5" edge="1">
          <mxGeometry relative="1" as="geometry">
            <mxPoint x="1390" y="127.75999999999999" as="targetPoint" />
          </mxGeometry>
        </mxCell>
        <mxCell id="75cfZj7-eQxO16BHJha4-11" value="Continuidade do projeto?" style="rhombus;whiteSpace=wrap;html=1;strokeColor=#a6a61d;fontSize=10;fillColor=#ffffcc;" parent="REOEvnUnP1cKmhOiyPTP-2" vertex="1">
          <mxGeometry x="1090" y="92" width="70" height="70" as="geometry" />
        </mxCell>
        <mxCell id="nKnNB21cNStt8jU2whA4-50" style="edgeStyle=orthogonalEdgeStyle;rounded=0;orthogonalLoop=1;jettySize=auto;html=1;exitX=1;exitY=0.5;exitDx=0;exitDy=0;entryX=0;entryY=0.5;entryDx=0;entryDy=0;fontSize=16;" parent="REOEvnUnP1cKmhOiyPTP-2" source="s65Mroft3krtSxNpBgLN-6" target="75cfZj7-eQxO16BHJha4-11" edge="1">
          <mxGeometry relative="1" as="geometry">
            <mxPoint x="1000" y="127.75999999999999" as="sourcePoint" />
          </mxGeometry>
        </mxCell>
        <mxCell id="7S2bCDqArC1DxhJI_XL0-88" style="edgeStyle=orthogonalEdgeStyle;rounded=0;orthogonalLoop=1;jettySize=auto;html=1;exitX=1;exitY=0.5;exitDx=0;exitDy=0;fontFamily=Helvetica;fontSize=11;fontColor=#000000;startArrow=none;entryX=0;entryY=0.5;entryDx=0;entryDy=0;" parent="REOEvnUnP1cKmhOiyPTP-2" source="7S2bCDqArC1DxhJI_XL0-104" target="s65Mroft3krtSxNpBgLN-6" edge="1">
          <mxGeometry relative="1" as="geometry">
            <mxPoint x="1654" y="150" as="sourcePoint" />
            <mxPoint x="950" y="127.75999999999999" as="targetPoint" />
          </mxGeometry>
        </mxCell>
        <mxCell id="7S2bCDqArC1DxhJI_XL0-108" value="Sim" style="edgeLabel;html=1;align=center;verticalAlign=middle;resizable=0;points=[];fontSize=11;fontFamily=Helvetica;fontColor=#000000;" parent="7S2bCDqArC1DxhJI_XL0-88" vertex="1" connectable="0">
          <mxGeometry x="-0.1102" y="-4" relative="1" as="geometry">
            <mxPoint x="-18" y="-4" as="offset" />
          </mxGeometry>
        </mxCell>
        <mxCell id="v3_SV2aUN1-4RCRF9CUd-10" value="Aprovado?" style="rhombus;whiteSpace=wrap;html=1;strokeColor=#a6a61d;fontSize=10;fillColor=#ffffcc;" parent="REOEvnUnP1cKmhOiyPTP-2" vertex="1">
          <mxGeometry x="633" y="211" width="70" height="70" as="geometry" />
        </mxCell>
        <mxCell id="7S2bCDqArC1DxhJI_XL0-96" style="edgeStyle=orthogonalEdgeStyle;rounded=0;orthogonalLoop=1;jettySize=auto;html=1;exitX=0.5;exitY=0;exitDx=0;exitDy=0;fontFamily=Helvetica;fontSize=10;fontColor=#000000;entryX=0.5;entryY=1;entryDx=0;entryDy=0;" parent="REOEvnUnP1cKmhOiyPTP-2" source="v3_SV2aUN1-4RCRF9CUd-10" target="d9HaHP7tqBKfooOxbFVG-8" edge="1">
          <mxGeometry relative="1" as="geometry">
            <mxPoint x="838" y="388.73" as="sourcePoint" />
            <mxPoint x="719" y="183.76" as="targetPoint" />
          </mxGeometry>
        </mxCell>
        <mxCell id="7S2bCDqArC1DxhJI_XL0-97" value="&lt;span style=&quot;font-size: 11px;&quot;&gt;Não, reprovado&lt;/span&gt;" style="edgeLabel;html=1;align=center;verticalAlign=middle;resizable=0;points=[];fontSize=10;fontFamily=Helvetica;fontColor=#000000;" parent="7S2bCDqArC1DxhJI_XL0-96" vertex="1" connectable="0">
          <mxGeometry x="0.1298" relative="1" as="geometry">
            <mxPoint y="8" as="offset" />
          </mxGeometry>
        </mxCell>
        <mxCell id="7S2bCDqArC1DxhJI_XL0-83" style="edgeStyle=orthogonalEdgeStyle;rounded=0;orthogonalLoop=1;jettySize=auto;html=1;exitX=1;exitY=0.5;exitDx=0;exitDy=0;fontFamily=Helvetica;fontSize=11;fontColor=#000000;entryX=0.5;entryY=1;entryDx=0;entryDy=0;" parent="REOEvnUnP1cKmhOiyPTP-2" source="v3_SV2aUN1-4RCRF9CUd-10" target="7S2bCDqArC1DxhJI_XL0-104" edge="1">
          <mxGeometry relative="1" as="geometry">
            <mxPoint x="730" y="201" as="targetPoint" />
          </mxGeometry>
        </mxCell>
        <mxCell id="d9HaHP7tqBKfooOxbFVG-7" value="Sim" style="edgeLabel;html=1;align=center;verticalAlign=middle;resizable=0;points=[];" parent="7S2bCDqArC1DxhJI_XL0-83" vertex="1" connectable="0">
          <mxGeometry x="-0.1746" y="-1" relative="1" as="geometry">
            <mxPoint x="-36" y="-1" as="offset" />
          </mxGeometry>
        </mxCell>
        <mxCell id="aexLbSk2Bx6_30zfnnaJ-69" style="edgeStyle=orthogonalEdgeStyle;rounded=0;orthogonalLoop=1;jettySize=auto;html=1;exitX=1;exitY=0.5;exitDx=0;exitDy=0;entryX=0;entryY=0.5;entryDx=0;entryDy=0;" parent="REOEvnUnP1cKmhOiyPTP-2" source="s65Mroft3krtSxNpBgLN-5" target="nKnNB21cNStt8jU2whA4-52" edge="1">
          <mxGeometry relative="1" as="geometry">
            <mxPoint x="1859.9999999999945" y="127.76000000000005" as="sourcePoint" />
          </mxGeometry>
        </mxCell>
        <mxCell id="s65Mroft3krtSxNpBgLN-5" value="Desenvolvimento do projeto" style="ellipse;whiteSpace=wrap;html=1;aspect=fixed;fillColor=#FFFFCC;strokeColor=#A6A61D;labelPosition=center;verticalLabelPosition=top;align=center;verticalAlign=bottom;" parent="REOEvnUnP1cKmhOiyPTP-2" vertex="1">
          <mxGeometry x="1810" y="102" width="50" height="50" as="geometry" />
        </mxCell>
        <mxCell id="s65Mroft3krtSxNpBgLN-6" value="Desenvolvimento do projeto" style="ellipse;whiteSpace=wrap;html=1;aspect=fixed;fillColor=#FFFFCC;strokeColor=#A6A61D;labelPosition=center;verticalLabelPosition=top;align=center;verticalAlign=bottom;" parent="REOEvnUnP1cKmhOiyPTP-2" vertex="1">
          <mxGeometry x="950" y="102.76" width="50" height="50" as="geometry" />
        </mxCell>
        <mxCell id="WL2KnbgeO3ltmPH4mjCC-1" value="&lt;span style=&quot;font-size: 11px;&quot;&gt;Criar ação para o PMB &lt;br&gt;avaliar os riscos do projeto&lt;/span&gt;" style="ellipse;shape=cloud;whiteSpace=wrap;html=1;fillColor=#f5f5f5;fontColor=#333333;strokeColor=#666666;shadow=0;strokeWidth=0;" parent="REOEvnUnP1cKmhOiyPTP-2" vertex="1">
          <mxGeometry x="1450" y="21.759999999999998" width="150" height="72" as="geometry" />
        </mxCell>
        <mxCell id="WL2KnbgeO3ltmPH4mjCC-2" value="" style="endArrow=none;dashed=1;html=1;rounded=0;fontSize=11;exitX=0.75;exitY=0;exitDx=0;exitDy=0;entryX=0.31;entryY=0.8;entryDx=0;entryDy=0;entryPerimeter=0;exitPerimeter=0;" parent="REOEvnUnP1cKmhOiyPTP-2" source="BcPstPzpljA3nbRgEFQv-5" target="WL2KnbgeO3ltmPH4mjCC-1" edge="1">
          <mxGeometry width="50" height="50" relative="1" as="geometry">
            <mxPoint x="1648" y="115.76" as="sourcePoint" />
            <mxPoint x="1910" y="197.51999999999998" as="targetPoint" />
          </mxGeometry>
        </mxCell>
        <mxCell id="BcPstPzpljA3nbRgEFQv-4" value="&lt;span style=&quot;font-size: 10px;&quot;&gt;&lt;br&gt;Publicação portal para análise&lt;/span&gt;" style="points=[[0.25,0,0],[0.5,0,0],[0.75,0,0],[1,0.25,0],[1,0.5,0],[1,0.75,0],[0.75,1,0],[0.5,1,0],[0.25,1,0],[0,0.75,0],[0,0.5,0],[0,0.25,0]];shape=mxgraph.bpmn.task;whiteSpace=wrap;rectStyle=rounded;size=10;html=1;taskMarker=send;fillColor=#dae8fc;strokeColor=#6c8ebf;strokeWidth=2;" vertex="1" parent="REOEvnUnP1cKmhOiyPTP-2">
          <mxGeometry x="100" y="101.76000000000005" width="100" height="52" as="geometry" />
        </mxCell>
        <mxCell id="BcPstPzpljA3nbRgEFQv-5" value="&lt;font style=&quot;font-size: 10px;&quot;&gt;&lt;br&gt;Cadastro do projeto no portal RMA&lt;/font&gt;" style="points=[[0.25,0,0],[0.5,0,0],[0.75,0,0],[1,0.25,0],[1,0.5,0],[1,0.75,0],[0.75,1,0],[0.5,1,0],[0.25,1,0],[0,0.75,0],[0,0.5,0],[0,0.25,0]];shape=mxgraph.bpmn.task;whiteSpace=wrap;rectStyle=rounded;size=10;html=1;taskMarker=send;fillColor=#dae8fc;strokeColor=#6c8ebf;strokeWidth=2;" vertex="1" parent="REOEvnUnP1cKmhOiyPTP-2">
          <mxGeometry x="1390" y="100.76" width="100" height="52" as="geometry" />
        </mxCell>
        <mxCell id="d9HaHP7tqBKfooOxbFVG-151" style="edgeStyle=orthogonalEdgeStyle;rounded=0;orthogonalLoop=1;jettySize=auto;html=1;exitX=0.5;exitY=0;exitDx=0;exitDy=0;entryX=0.5;entryY=1;entryDx=0;entryDy=0;fontSize=11;" parent="REOEvnUnP1cKmhOiyPTP-1" source="d9HaHP7tqBKfooOxbFVG-149" target="d9HaHP7tqBKfooOxbFVG-27" edge="1">
          <mxGeometry relative="1" as="geometry" />
        </mxCell>
        <mxCell id="75cfZj7-eQxO16BHJha4-80" style="edgeStyle=orthogonalEdgeStyle;rounded=0;orthogonalLoop=1;jettySize=auto;html=1;exitX=0.5;exitY=1;exitDx=0;exitDy=0;entryX=0.5;entryY=0;entryDx=0;entryDy=0;fontSize=11;fontColor=#000000;" parent="REOEvnUnP1cKmhOiyPTP-1" source="d9HaHP7tqBKfooOxbFVG-160" target="75cfZj7-eQxO16BHJha4-79" edge="1">
          <mxGeometry relative="1" as="geometry" />
        </mxCell>
        <mxCell id="75cfZj7-eQxO16BHJha4-82" value="Sim" style="edgeLabel;html=1;align=center;verticalAlign=middle;resizable=0;points=[];fontSize=11;fontColor=#000000;" parent="75cfZj7-eQxO16BHJha4-80" vertex="1" connectable="0">
          <mxGeometry x="-0.6916" y="2" relative="1" as="geometry">
            <mxPoint as="offset" />
          </mxGeometry>
        </mxCell>
        <mxCell id="REOEvnUnP1cKmhOiyPTP-3" value="PMB" style="swimlane;startSize=20;horizontal=0;html=1;rounded=0;" parent="REOEvnUnP1cKmhOiyPTP-1" vertex="1">
          <mxGeometry x="20" y="320" width="4560" height="270" as="geometry">
            <mxRectangle x="20" y="80" width="880" height="30" as="alternateBounds" />
          </mxGeometry>
        </mxCell>
        <mxCell id="nKnNB21cNStt8jU2whA4-45" value="Etapa: Prospect" style="rounded=1;whiteSpace=wrap;html=1;dashed=1;strokeWidth=2;fillColor=none;arcSize=7;expand=1;editable=1;movable=0;resizable=1;rotatable=1;deletable=1;connectable=1;comic=0;enumerate=0;treeMoving=0;treeFolding=0;movableLabel=1;fontSize=16;" parent="REOEvnUnP1cKmhOiyPTP-3" vertex="1">
          <mxGeometry x="32" y="-310" width="1188" height="570" as="geometry">
            <mxPoint x="-508" y="-254" as="offset" />
          </mxGeometry>
        </mxCell>
        <mxCell id="Oy1cbulnrsk7dN2Pcbd7-7" style="edgeStyle=orthogonalEdgeStyle;rounded=0;orthogonalLoop=1;jettySize=auto;html=1;exitX=1;exitY=0.5;exitDx=0;exitDy=0;entryX=0;entryY=0.5;entryDx=0;entryDy=0;" parent="REOEvnUnP1cKmhOiyPTP-3" source="7S2bCDqArC1DxhJI_XL0-13" target="7S2bCDqArC1DxhJI_XL0-14" edge="1">
          <mxGeometry relative="1" as="geometry">
            <mxPoint x="2851" y="120.99999999999999" as="sourcePoint" />
            <mxPoint x="2922" y="120.99999999999999" as="targetPoint" />
          </mxGeometry>
        </mxCell>
        <mxCell id="7S2bCDqArC1DxhJI_XL0-102" style="edgeStyle=orthogonalEdgeStyle;rounded=0;orthogonalLoop=1;jettySize=auto;html=1;exitX=1;exitY=0.5;exitDx=0;exitDy=0;entryX=0;entryY=0.5;entryDx=0;entryDy=0;fontFamily=Helvetica;fontSize=11;fontColor=#000000;startArrow=none;" parent="REOEvnUnP1cKmhOiyPTP-3" source="d9HaHP7tqBKfooOxbFVG-1" target="v3_SV2aUN1-4RCRF9CUd-1" edge="1">
          <mxGeometry relative="1" as="geometry">
            <mxPoint x="560" y="131.36" as="targetPoint" />
          </mxGeometry>
        </mxCell>
        <mxCell id="d9HaHP7tqBKfooOxbFVG-5" value="" style="edgeStyle=orthogonalEdgeStyle;rounded=0;orthogonalLoop=1;jettySize=auto;html=1;" parent="REOEvnUnP1cKmhOiyPTP-3" source="Oy1cbulnrsk7dN2Pcbd7-8" target="d9HaHP7tqBKfooOxbFVG-1" edge="1">
          <mxGeometry relative="1" as="geometry" />
        </mxCell>
        <mxCell id="Oy1cbulnrsk7dN2Pcbd7-8" value="&lt;font style=&quot;font-size: 10px;&quot;&gt;Verificar &lt;i&gt;complexity index&lt;/i&gt;&lt;/font&gt;" style="rounded=1;whiteSpace=wrap;html=1;absoluteArcSize=1;arcSize=14;strokeWidth=2;fillColor=#dae8fc;strokeColor=#6c8ebf;" parent="REOEvnUnP1cKmhOiyPTP-3" vertex="1">
          <mxGeometry x="240" y="106.36000000000001" width="100" height="50" as="geometry" />
        </mxCell>
        <mxCell id="Oy1cbulnrsk7dN2Pcbd7-12" value="&lt;span style=&quot;font-size: 10px;&quot;&gt;Avaliação do DataSheet&lt;/span&gt;" style="rounded=1;whiteSpace=wrap;html=1;absoluteArcSize=1;arcSize=14;strokeWidth=2;fillColor=#dae8fc;strokeColor=#6c8ebf;" parent="REOEvnUnP1cKmhOiyPTP-3" vertex="1">
          <mxGeometry x="100" y="106.36000000000001" width="100" height="50" as="geometry" />
        </mxCell>
        <mxCell id="Oy1cbulnrsk7dN2Pcbd7-19" style="edgeStyle=orthogonalEdgeStyle;rounded=0;orthogonalLoop=1;jettySize=auto;html=1;exitX=1;exitY=0.5;exitDx=0;exitDy=0;entryX=0;entryY=0.5;entryDx=0;entryDy=0;entryPerimeter=0;" parent="REOEvnUnP1cKmhOiyPTP-3" source="v3_SV2aUN1-4RCRF9CUd-1" target="nKnNB21cNStt8jU2whA4-4" edge="1">
          <mxGeometry relative="1" as="geometry">
            <mxPoint x="618" y="132.12000000000003" as="targetPoint" />
          </mxGeometry>
        </mxCell>
        <mxCell id="v3_SV2aUN1-4RCRF9CUd-1" value="&lt;font style=&quot;font-size: 10px;&quot;&gt;Tempo resposta&lt;/font&gt;" style="ellipse;whiteSpace=wrap;html=1;aspect=fixed;fillColor=#ffffcc;strokeColor=#a6a61d;" parent="REOEvnUnP1cKmhOiyPTP-3" vertex="1">
          <mxGeometry x="523" y="107.12" width="50" height="50" as="geometry" />
        </mxCell>
        <mxCell id="d9HaHP7tqBKfooOxbFVG-26" style="edgeStyle=orthogonalEdgeStyle;rounded=0;orthogonalLoop=1;jettySize=auto;html=1;exitX=1;exitY=0.5;exitDx=0;exitDy=0;entryX=0;entryY=0.5;entryDx=0;entryDy=0;entryPerimeter=0;fontSize=11;exitPerimeter=0;" parent="REOEvnUnP1cKmhOiyPTP-3" source="nKnNB21cNStt8jU2whA4-4" target="d9HaHP7tqBKfooOxbFVG-25" edge="1">
          <mxGeometry relative="1" as="geometry">
            <mxPoint x="718" y="132.12000000000003" as="sourcePoint" />
          </mxGeometry>
        </mxCell>
        <mxCell id="Oy1cbulnrsk7dN2Pcbd7-26" value="PR-FLB-53-PMB-018" style="text;html=1;strokeColor=none;fillColor=none;align=center;verticalAlign=middle;whiteSpace=wrap;rounded=0;fontSize=10;" parent="REOEvnUnP1cKmhOiyPTP-3" vertex="1">
          <mxGeometry x="240" y="156.36" width="100" height="30" as="geometry" />
        </mxCell>
        <mxCell id="Oy1cbulnrsk7dN2Pcbd7-2" value="4 dias úteis" style="text;html=1;strokeColor=none;fillColor=none;align=center;verticalAlign=middle;whiteSpace=wrap;rounded=0;fontSize=10;" parent="REOEvnUnP1cKmhOiyPTP-3" vertex="1">
          <mxGeometry x="518" y="155.64999999999998" width="60" height="30" as="geometry" />
        </mxCell>
        <mxCell id="Oy1cbulnrsk7dN2Pcbd7-16" value="FO-FLB-53-PMB-001" style="text;html=1;strokeColor=none;fillColor=none;align=center;verticalAlign=middle;whiteSpace=wrap;rounded=0;fontSize=10;" parent="REOEvnUnP1cKmhOiyPTP-3" vertex="1">
          <mxGeometry x="618" y="157.62" width="100" height="30" as="geometry" />
        </mxCell>
        <mxCell id="7S2bCDqArC1DxhJI_XL0-13" value="&lt;span style=&quot;font-size: 10px;&quot;&gt;Verificar necessidade de revisão dos documentos&lt;/span&gt;" style="rounded=1;whiteSpace=wrap;html=1;absoluteArcSize=1;arcSize=14;strokeWidth=2;fillColor=#dae8fc;strokeColor=#6c8ebf;" parent="REOEvnUnP1cKmhOiyPTP-3" vertex="1">
          <mxGeometry x="2530" y="114.99999999999999" width="100" height="50" as="geometry" />
        </mxCell>
        <mxCell id="7S2bCDqArC1DxhJI_XL0-61" style="edgeStyle=orthogonalEdgeStyle;rounded=0;orthogonalLoop=1;jettySize=auto;html=1;exitX=1;exitY=0.5;exitDx=0;exitDy=0;entryX=0;entryY=0.5;entryDx=0;entryDy=0;fontFamily=Helvetica;fontSize=11;fontColor=#000000;" parent="REOEvnUnP1cKmhOiyPTP-3" source="7S2bCDqArC1DxhJI_XL0-14" target="7S2bCDqArC1DxhJI_XL0-59" edge="1">
          <mxGeometry relative="1" as="geometry" />
        </mxCell>
        <mxCell id="7S2bCDqArC1DxhJI_XL0-14" value="&lt;span style=&quot;font-size: 10px;&quot;&gt;Verificar necessidade de revisão relatório de montagem&lt;/span&gt;" style="rounded=1;whiteSpace=wrap;html=1;absoluteArcSize=1;arcSize=14;strokeWidth=2;fillColor=#dae8fc;strokeColor=#6c8ebf;" parent="REOEvnUnP1cKmhOiyPTP-3" vertex="1">
          <mxGeometry x="2700" y="114.99999999999999" width="100" height="50" as="geometry" />
        </mxCell>
        <mxCell id="7S2bCDqArC1DxhJI_XL0-62" style="edgeStyle=orthogonalEdgeStyle;rounded=0;orthogonalLoop=1;jettySize=auto;html=1;exitX=1;exitY=0.5;exitDx=0;exitDy=0;entryX=0;entryY=0.5;entryDx=0;entryDy=0;fontFamily=Helvetica;fontSize=11;fontColor=#000000;" parent="REOEvnUnP1cKmhOiyPTP-3" source="7S2bCDqArC1DxhJI_XL0-59" target="7S2bCDqArC1DxhJI_XL0-60" edge="1">
          <mxGeometry relative="1" as="geometry" />
        </mxCell>
        <mxCell id="7S2bCDqArC1DxhJI_XL0-63" value="Sim" style="edgeLabel;html=1;align=center;verticalAlign=middle;resizable=0;points=[];fontSize=11;fontFamily=Helvetica;fontColor=#000000;" parent="7S2bCDqArC1DxhJI_XL0-62" vertex="1" connectable="0">
          <mxGeometry x="-0.2933" relative="1" as="geometry">
            <mxPoint as="offset" />
          </mxGeometry>
        </mxCell>
        <mxCell id="s65Mroft3krtSxNpBgLN-48" style="edgeStyle=orthogonalEdgeStyle;rounded=0;orthogonalLoop=1;jettySize=auto;html=1;exitX=0.5;exitY=0;exitDx=0;exitDy=0;entryX=0.5;entryY=0;entryDx=0;entryDy=0;entryPerimeter=0;" parent="REOEvnUnP1cKmhOiyPTP-3" source="7S2bCDqArC1DxhJI_XL0-59" target="s65Mroft3krtSxNpBgLN-46" edge="1">
          <mxGeometry relative="1" as="geometry" />
        </mxCell>
        <mxCell id="s65Mroft3krtSxNpBgLN-49" value="Não" style="edgeLabel;html=1;align=center;verticalAlign=middle;resizable=0;points=[];" parent="s65Mroft3krtSxNpBgLN-48" vertex="1" connectable="0">
          <mxGeometry x="-0.54" relative="1" as="geometry">
            <mxPoint x="-30" y="-1" as="offset" />
          </mxGeometry>
        </mxCell>
        <mxCell id="7S2bCDqArC1DxhJI_XL0-59" value="Necessário revisão?" style="rhombus;whiteSpace=wrap;html=1;strokeColor=#a6a61d;fontSize=10;fillColor=#ffffcc;" parent="REOEvnUnP1cKmhOiyPTP-3" vertex="1">
          <mxGeometry x="2860" y="104.99999999999999" width="70" height="70" as="geometry" />
        </mxCell>
        <mxCell id="s65Mroft3krtSxNpBgLN-47" style="edgeStyle=orthogonalEdgeStyle;rounded=0;orthogonalLoop=1;jettySize=auto;html=1;exitX=1;exitY=0.5;exitDx=0;exitDy=0;entryX=0;entryY=0.5;entryDx=0;entryDy=0;entryPerimeter=0;" parent="REOEvnUnP1cKmhOiyPTP-3" source="7S2bCDqArC1DxhJI_XL0-60" target="s65Mroft3krtSxNpBgLN-46" edge="1">
          <mxGeometry relative="1" as="geometry" />
        </mxCell>
        <mxCell id="7S2bCDqArC1DxhJI_XL0-60" value="&lt;span style=&quot;font-size: 10px;&quot;&gt;Realizar revisão&lt;/span&gt;" style="rounded=1;whiteSpace=wrap;html=1;absoluteArcSize=1;arcSize=14;strokeWidth=2;fillColor=#dae8fc;strokeColor=#6c8ebf;" parent="REOEvnUnP1cKmhOiyPTP-3" vertex="1">
          <mxGeometry x="3020" y="114.99999999999999" width="100" height="50" as="geometry" />
        </mxCell>
        <mxCell id="7S2bCDqArC1DxhJI_XL0-112" style="edgeStyle=orthogonalEdgeStyle;rounded=0;orthogonalLoop=1;jettySize=auto;html=1;exitX=1;exitY=0.5;exitDx=0;exitDy=0;fontFamily=Helvetica;fontSize=11;fontColor=#000000;startArrow=none;entryX=0;entryY=0.5;entryDx=0;entryDy=0;" parent="REOEvnUnP1cKmhOiyPTP-3" source="d9HaHP7tqBKfooOxbFVG-160" target="75cfZj7-eQxO16BHJha4-84" edge="1">
          <mxGeometry relative="1" as="geometry">
            <mxPoint x="4380" y="183.66" as="targetPoint" />
          </mxGeometry>
        </mxCell>
        <mxCell id="d9HaHP7tqBKfooOxbFVG-163" value="Não" style="edgeLabel;html=1;align=center;verticalAlign=middle;resizable=0;points=[];fontSize=11;" parent="7S2bCDqArC1DxhJI_XL0-112" vertex="1" connectable="0">
          <mxGeometry x="-0.6801" y="-2" relative="1" as="geometry">
            <mxPoint x="16" y="-2" as="offset" />
          </mxGeometry>
        </mxCell>
        <mxCell id="Oy1cbulnrsk7dN2Pcbd7-13" style="edgeStyle=orthogonalEdgeStyle;rounded=0;orthogonalLoop=1;jettySize=auto;html=1;exitX=1;exitY=0.5;exitDx=0;exitDy=0;entryX=0;entryY=0.5;entryDx=0;entryDy=0;" parent="REOEvnUnP1cKmhOiyPTP-3" source="Oy1cbulnrsk7dN2Pcbd7-12" target="Oy1cbulnrsk7dN2Pcbd7-8" edge="1">
          <mxGeometry relative="1" as="geometry">
            <mxPoint x="250" y="131.36" as="targetPoint" />
          </mxGeometry>
        </mxCell>
        <mxCell id="d9HaHP7tqBKfooOxbFVG-1" value="&lt;font style=&quot;font-size: 10px;&quot;&gt;Verificar tabela de checklist&lt;/font&gt;" style="rounded=1;whiteSpace=wrap;html=1;absoluteArcSize=1;arcSize=14;strokeWidth=2;fillColor=#dae8fc;strokeColor=#6c8ebf;" parent="REOEvnUnP1cKmhOiyPTP-3" vertex="1">
          <mxGeometry x="380" y="106.38999999999999" width="100" height="50" as="geometry" />
        </mxCell>
        <mxCell id="d9HaHP7tqBKfooOxbFVG-25" value="Registro na pasta de capabilidade" style="shape=cylinder3;whiteSpace=wrap;html=1;boundedLbl=1;backgroundOutline=1;size=9.666666666666572;shadow=0;strokeWidth=1;fontSize=11;fillColor=#f5f5f5;strokeColor=#666666;fontColor=#333333;" parent="REOEvnUnP1cKmhOiyPTP-3" vertex="1">
          <mxGeometry x="769" y="93.12" width="70" height="78" as="geometry" />
        </mxCell>
        <mxCell id="75cfZj7-eQxO16BHJha4-75" style="edgeStyle=orthogonalEdgeStyle;rounded=0;orthogonalLoop=1;jettySize=auto;html=1;exitX=1;exitY=0.5;exitDx=0;exitDy=0;entryX=0;entryY=0.5;entryDx=0;entryDy=0;entryPerimeter=0;fontSize=11;fontColor=#000000;" parent="REOEvnUnP1cKmhOiyPTP-3" source="d9HaHP7tqBKfooOxbFVG-27" target="s65Mroft3krtSxNpBgLN-1" edge="1">
          <mxGeometry relative="1" as="geometry">
            <mxPoint x="4010" y="159.66" as="targetPoint" />
          </mxGeometry>
        </mxCell>
        <mxCell id="d9HaHP7tqBKfooOxbFVG-27" value="&lt;span style=&quot;font-size: 10px;&quot;&gt;Análise crítica desenho do conector&lt;/span&gt;" style="rounded=1;whiteSpace=wrap;html=1;absoluteArcSize=1;arcSize=14;strokeWidth=2;fillColor=#dae8fc;strokeColor=#6c8ebf;" parent="REOEvnUnP1cKmhOiyPTP-3" vertex="1">
          <mxGeometry x="3830" y="134.66" width="100" height="50" as="geometry" />
        </mxCell>
        <mxCell id="d9HaHP7tqBKfooOxbFVG-160" value="Necessário adequação?" style="rhombus;whiteSpace=wrap;html=1;strokeColor=#a6a61d;fontSize=10;fillColor=#ffffcc;" parent="REOEvnUnP1cKmhOiyPTP-3" vertex="1">
          <mxGeometry x="4145" y="124.66" width="70" height="70" as="geometry" />
        </mxCell>
        <mxCell id="nKnNB21cNStt8jU2whA4-4" value="&lt;span style=&quot;font-size: 10px;&quot;&gt;Resposta de capabilidade&lt;/span&gt;" style="points=[[0.25,0,0],[0.5,0,0],[0.75,0,0],[1,0.25,0],[1,0.5,0],[1,0.75,0],[0.75,1,0],[0.5,1,0],[0.25,1,0],[0,0.75,0],[0,0.5,0],[0,0.25,0]];shape=mxgraph.bpmn.task;whiteSpace=wrap;rectStyle=rounded;size=10;html=1;taskMarker=send;fillColor=#dae8fc;strokeColor=#6c8ebf;strokeWidth=2;" parent="REOEvnUnP1cKmhOiyPTP-3" vertex="1">
          <mxGeometry x="618" y="106.15000000000003" width="100" height="52" as="geometry" />
        </mxCell>
        <mxCell id="aexLbSk2Bx6_30zfnnaJ-3" style="edgeStyle=orthogonalEdgeStyle;rounded=0;orthogonalLoop=1;jettySize=auto;html=1;exitX=1;exitY=0.5;exitDx=0;exitDy=0;entryX=0;entryY=0.5;entryDx=0;entryDy=0;" parent="REOEvnUnP1cKmhOiyPTP-3" source="nKnNB21cNStt8jU2whA4-7" target="aexLbSk2Bx6_30zfnnaJ-1" edge="1">
          <mxGeometry relative="1" as="geometry" />
        </mxCell>
        <mxCell id="nKnNB21cNStt8jU2whA4-7" value="&lt;span style=&quot;font-size: 10px;&quot;&gt;Verificar documento análise de riscos MMT&lt;/span&gt;" style="rounded=1;whiteSpace=wrap;html=1;absoluteArcSize=1;arcSize=14;strokeWidth=2;fillColor=#dae8fc;strokeColor=#6c8ebf;" parent="REOEvnUnP1cKmhOiyPTP-3" vertex="1">
          <mxGeometry x="1390" y="163.15000000000003" width="100" height="50" as="geometry" />
        </mxCell>
        <mxCell id="XgBZHDR8JV6FvFQxuWRU-4" value="&lt;span style=&quot;font-size: 10px;&quot;&gt;Análise crítica dos riscos&lt;/span&gt;" style="rounded=1;whiteSpace=wrap;html=1;absoluteArcSize=1;arcSize=14;strokeWidth=2;fillColor=#dae8fc;strokeColor=#6c8ebf;" parent="REOEvnUnP1cKmhOiyPTP-3" vertex="1">
          <mxGeometry x="2080" y="114.99999999999999" width="100" height="50" as="geometry" />
        </mxCell>
        <mxCell id="75cfZj7-eQxO16BHJha4-83" value="Cadastrar riscos no portal RMA" style="shape=cylinder3;whiteSpace=wrap;html=1;boundedLbl=1;backgroundOutline=1;size=9.666666666666572;shadow=0;strokeWidth=1;fontSize=11;fillColor=#f5f5f5;strokeColor=#666666;fontColor=#333333;" parent="REOEvnUnP1cKmhOiyPTP-3" vertex="1">
          <mxGeometry x="4400" y="120.66" width="70" height="78" as="geometry" />
        </mxCell>
        <mxCell id="75cfZj7-eQxO16BHJha4-85" style="edgeStyle=orthogonalEdgeStyle;rounded=0;orthogonalLoop=1;jettySize=auto;html=1;exitX=1;exitY=0.5;exitDx=0;exitDy=0;entryX=0;entryY=0.5;entryDx=0;entryDy=0;entryPerimeter=0;fontSize=11;fontColor=#000000;" parent="REOEvnUnP1cKmhOiyPTP-3" source="75cfZj7-eQxO16BHJha4-84" target="75cfZj7-eQxO16BHJha4-83" edge="1">
          <mxGeometry relative="1" as="geometry" />
        </mxCell>
        <mxCell id="75cfZj7-eQxO16BHJha4-86" value="Sim" style="edgeLabel;html=1;align=center;verticalAlign=middle;resizable=0;points=[];fontSize=11;fontColor=#000000;" parent="75cfZj7-eQxO16BHJha4-85" vertex="1" connectable="0">
          <mxGeometry x="0.2287" y="-3" relative="1" as="geometry">
            <mxPoint x="-17" y="-3" as="offset" />
          </mxGeometry>
        </mxCell>
        <mxCell id="75cfZj7-eQxO16BHJha4-84" value="Risco observado?" style="rhombus;whiteSpace=wrap;html=1;strokeColor=#a6a61d;fontSize=10;fillColor=#ffffcc;" parent="REOEvnUnP1cKmhOiyPTP-3" vertex="1">
          <mxGeometry x="4270" y="124.66" width="70" height="70" as="geometry" />
        </mxCell>
        <mxCell id="Wg8mZ3Y4Zicfu8KM_0Pd-1" value="PR-FLB-53-PMB-0XX" style="text;html=1;strokeColor=none;fillColor=none;align=center;verticalAlign=middle;whiteSpace=wrap;rounded=0;fontSize=10;" parent="REOEvnUnP1cKmhOiyPTP-3" vertex="1">
          <mxGeometry x="1390" y="211.65" width="100" height="30" as="geometry" />
        </mxCell>
        <mxCell id="aexLbSk2Bx6_30zfnnaJ-4" style="edgeStyle=orthogonalEdgeStyle;rounded=0;orthogonalLoop=1;jettySize=auto;html=1;exitX=1;exitY=0.5;exitDx=0;exitDy=0;entryX=0;entryY=0.5;entryDx=0;entryDy=0;entryPerimeter=0;" parent="REOEvnUnP1cKmhOiyPTP-3" source="aexLbSk2Bx6_30zfnnaJ-1" target="aexLbSk2Bx6_30zfnnaJ-6" edge="1">
          <mxGeometry relative="1" as="geometry">
            <mxPoint x="1660" y="221" as="targetPoint" />
          </mxGeometry>
        </mxCell>
        <mxCell id="aexLbSk2Bx6_30zfnnaJ-1" value="&lt;font style=&quot;font-size: 10px;&quot;&gt;Tempo resposta&lt;/font&gt;" style="ellipse;whiteSpace=wrap;html=1;aspect=fixed;fillColor=#ffffcc;strokeColor=#a6a61d;" parent="REOEvnUnP1cKmhOiyPTP-3" vertex="1">
          <mxGeometry x="1545" y="163.83000000000004" width="50" height="50" as="geometry" />
        </mxCell>
        <mxCell id="aexLbSk2Bx6_30zfnnaJ-2" value="4 dias úteis" style="text;html=1;strokeColor=none;fillColor=none;align=center;verticalAlign=middle;whiteSpace=wrap;rounded=0;fontSize=10;" parent="REOEvnUnP1cKmhOiyPTP-3" vertex="1">
          <mxGeometry x="1540" y="212.36" width="60" height="30" as="geometry" />
        </mxCell>
        <mxCell id="aexLbSk2Bx6_30zfnnaJ-10" style="edgeStyle=orthogonalEdgeStyle;rounded=0;orthogonalLoop=1;jettySize=auto;html=1;exitX=0.5;exitY=0;exitDx=0;exitDy=0;exitPerimeter=0;entryX=0.5;entryY=1;entryDx=0;entryDy=0;" parent="REOEvnUnP1cKmhOiyPTP-3" source="aexLbSk2Bx6_30zfnnaJ-6" target="aexLbSk2Bx6_30zfnnaJ-8" edge="1">
          <mxGeometry relative="1" as="geometry" />
        </mxCell>
        <mxCell id="aexLbSk2Bx6_30zfnnaJ-6" value="R&lt;span style=&quot;border-color: var(--border-color); font-size: 10px;&quot;&gt;esposta&lt;/span&gt;&lt;br style=&quot;border-color: var(--border-color); font-size: 10px;&quot;&gt;&lt;span style=&quot;border-color: var(--border-color); font-size: 10px;&quot;&gt;análise de risco&lt;/span&gt;" style="points=[[0.25,0,0],[0.5,0,0],[0.75,0,0],[1,0.25,0],[1,0.5,0],[1,0.75,0],[0.75,1,0],[0.5,1,0],[0.25,1,0],[0,0.75,0],[0,0.5,0],[0,0.25,0]];shape=mxgraph.bpmn.task;whiteSpace=wrap;rectStyle=rounded;size=10;html=1;taskMarker=send;fillColor=#dae8fc;strokeColor=#6c8ebf;strokeWidth=2;" parent="REOEvnUnP1cKmhOiyPTP-3" vertex="1">
          <mxGeometry x="1645" y="162.39000000000001" width="100" height="52" as="geometry" />
        </mxCell>
        <mxCell id="aexLbSk2Bx6_30zfnnaJ-11" style="edgeStyle=orthogonalEdgeStyle;rounded=0;orthogonalLoop=1;jettySize=auto;html=1;exitX=1;exitY=0.5;exitDx=0;exitDy=0;entryX=0;entryY=0.5;entryDx=0;entryDy=0;entryPerimeter=0;" parent="REOEvnUnP1cKmhOiyPTP-3" source="aexLbSk2Bx6_30zfnnaJ-8" target="aexLbSk2Bx6_30zfnnaJ-9" edge="1">
          <mxGeometry relative="1" as="geometry" />
        </mxCell>
        <mxCell id="aexLbSk2Bx6_30zfnnaJ-13" value="Sim" style="edgeLabel;html=1;align=center;verticalAlign=middle;resizable=0;points=[];" parent="aexLbSk2Bx6_30zfnnaJ-11" vertex="1" connectable="0">
          <mxGeometry x="-0.3142" y="-3" relative="1" as="geometry">
            <mxPoint x="3" y="-3" as="offset" />
          </mxGeometry>
        </mxCell>
        <mxCell id="aexLbSk2Bx6_30zfnnaJ-8" value="Risco identificado?" style="rhombus;whiteSpace=wrap;html=1;strokeColor=#a6a61d;fontSize=10;fillColor=#ffffcc;" parent="REOEvnUnP1cKmhOiyPTP-3" vertex="1">
          <mxGeometry x="1660" y="45" width="70" height="70" as="geometry" />
        </mxCell>
        <mxCell id="aexLbSk2Bx6_30zfnnaJ-9" value="Cadastrar riscos no portal RMA" style="shape=cylinder3;whiteSpace=wrap;html=1;boundedLbl=1;backgroundOutline=1;size=9.666666666666572;shadow=0;strokeWidth=1;fontSize=11;fillColor=#f5f5f5;strokeColor=#666666;fontColor=#333333;" parent="REOEvnUnP1cKmhOiyPTP-3" vertex="1">
          <mxGeometry x="1800" y="41" width="70" height="78" as="geometry" />
        </mxCell>
        <mxCell id="s65Mroft3krtSxNpBgLN-3" style="edgeStyle=orthogonalEdgeStyle;rounded=0;orthogonalLoop=1;jettySize=auto;html=1;exitX=1;exitY=0.5;exitDx=0;exitDy=0;exitPerimeter=0;entryX=0;entryY=0.5;entryDx=0;entryDy=0;" parent="REOEvnUnP1cKmhOiyPTP-3" source="s65Mroft3krtSxNpBgLN-1" target="d9HaHP7tqBKfooOxbFVG-160" edge="1">
          <mxGeometry relative="1" as="geometry" />
        </mxCell>
        <mxCell id="BcPstPzpljA3nbRgEFQv-2" style="edgeStyle=orthogonalEdgeStyle;rounded=0;orthogonalLoop=1;jettySize=auto;html=1;exitX=0.5;exitY=0;exitDx=0;exitDy=0;exitPerimeter=0;entryX=0.5;entryY=1;entryDx=0;entryDy=0;entryPerimeter=0;" edge="1" parent="REOEvnUnP1cKmhOiyPTP-3" source="s65Mroft3krtSxNpBgLN-1" target="BcPstPzpljA3nbRgEFQv-1">
          <mxGeometry relative="1" as="geometry" />
        </mxCell>
        <mxCell id="s65Mroft3krtSxNpBgLN-1" value="R&lt;span style=&quot;border-color: var(--border-color); font-size: 10px;&quot;&gt;esposta&amp;nbsp;&lt;br&gt;&lt;/span&gt;&lt;span style=&quot;border-color: var(--border-color); font-size: 10px;&quot;&gt;estudo de conector&lt;/span&gt;" style="points=[[0.25,0,0],[0.5,0,0],[0.75,0,0],[1,0.25,0],[1,0.5,0],[1,0.75,0],[0.75,1,0],[0.5,1,0],[0.25,1,0],[0,0.75,0],[0,0.5,0],[0,0.25,0]];shape=mxgraph.bpmn.task;whiteSpace=wrap;rectStyle=rounded;size=10;html=1;taskMarker=send;fillColor=#dae8fc;strokeColor=#6c8ebf;strokeWidth=2;" parent="REOEvnUnP1cKmhOiyPTP-3" vertex="1">
          <mxGeometry x="3988" y="133.66000000000003" width="100" height="52" as="geometry" />
        </mxCell>
        <mxCell id="s65Mroft3krtSxNpBgLN-2" value="FO-FLB-53-PMB-034" style="text;html=1;strokeColor=none;fillColor=none;align=center;verticalAlign=middle;whiteSpace=wrap;rounded=0;fontSize=10;" parent="REOEvnUnP1cKmhOiyPTP-3" vertex="1">
          <mxGeometry x="3988" y="185.66" width="100" height="30" as="geometry" />
        </mxCell>
        <mxCell id="s65Mroft3krtSxNpBgLN-46" value="Atualizar riscos no portal RMA" style="shape=cylinder3;whiteSpace=wrap;html=1;boundedLbl=1;backgroundOutline=1;size=9.666666666666572;shadow=0;strokeWidth=1;fontSize=11;fillColor=#f5f5f5;strokeColor=#666666;fontColor=#333333;" parent="REOEvnUnP1cKmhOiyPTP-3" vertex="1">
          <mxGeometry x="3200" y="101.00000000000003" width="70" height="78" as="geometry" />
        </mxCell>
        <mxCell id="BcPstPzpljA3nbRgEFQv-1" value="Registro banco de dados REC" style="shape=cylinder3;whiteSpace=wrap;html=1;boundedLbl=1;backgroundOutline=1;size=9.666666666666572;shadow=0;strokeWidth=1;fontSize=11;fillColor=#f5f5f5;strokeColor=#666666;fontColor=#333333;" vertex="1" parent="REOEvnUnP1cKmhOiyPTP-3">
          <mxGeometry x="4003" y="10.000000000000028" width="70" height="78" as="geometry" />
        </mxCell>
        <mxCell id="d9HaHP7tqBKfooOxbFVG-146" value="Engenharia" style="swimlane;startSize=20;horizontal=0;html=1;rounded=0;" parent="REOEvnUnP1cKmhOiyPTP-1" vertex="1">
          <mxGeometry x="20" y="590" width="4560" height="170" as="geometry">
            <mxRectangle x="20" y="200" width="880" height="30" as="alternateBounds" />
          </mxGeometry>
        </mxCell>
        <mxCell id="d9HaHP7tqBKfooOxbFVG-149" value="&lt;span style=&quot;font-size: 10px;&quot;&gt;Solicitação IDC&lt;/span&gt;" style="rounded=1;whiteSpace=wrap;html=1;absoluteArcSize=1;arcSize=14;strokeWidth=2;fillColor=#dae8fc;strokeColor=#6c8ebf;" parent="d9HaHP7tqBKfooOxbFVG-146" vertex="1">
          <mxGeometry x="3830" y="55.66" width="100" height="50" as="geometry" />
        </mxCell>
        <mxCell id="75cfZj7-eQxO16BHJha4-23" style="edgeStyle=orthogonalEdgeStyle;rounded=0;orthogonalLoop=1;jettySize=auto;html=1;exitX=1;exitY=0.5;exitDx=0;exitDy=0;entryX=0;entryY=0.5;entryDx=0;entryDy=0;fontSize=11;" parent="d9HaHP7tqBKfooOxbFVG-146" source="75cfZj7-eQxO16BHJha4-18" target="75cfZj7-eQxO16BHJha4-22" edge="1">
          <mxGeometry relative="1" as="geometry" />
        </mxCell>
        <mxCell id="75cfZj7-eQxO16BHJha4-18" value="&lt;span style=&quot;font-size: 10px;&quot;&gt;Elaboração &lt;br&gt;design do conector&lt;/span&gt;" style="rounded=1;whiteSpace=wrap;html=1;absoluteArcSize=1;arcSize=14;strokeWidth=2;fillColor=#dae8fc;strokeColor=#6c8ebf;" parent="d9HaHP7tqBKfooOxbFVG-146" vertex="1">
          <mxGeometry x="1240" y="75.75" width="100" height="50" as="geometry" />
        </mxCell>
        <mxCell id="75cfZj7-eQxO16BHJha4-22" value="&lt;font color=&quot;#a6a61d&quot; style=&quot;font-size: 36px;&quot;&gt;A&lt;/font&gt;" style="ellipse;whiteSpace=wrap;html=1;aspect=fixed;fillColor=#ffffcc;strokeColor=#a6a61d;" parent="d9HaHP7tqBKfooOxbFVG-146" vertex="1">
          <mxGeometry x="1400" y="75.75" width="50" height="50" as="geometry" />
        </mxCell>
        <mxCell id="75cfZj7-eQxO16BHJha4-74" style="edgeStyle=orthogonalEdgeStyle;rounded=0;orthogonalLoop=1;jettySize=auto;html=1;exitX=1;exitY=0.5;exitDx=0;exitDy=0;entryX=0;entryY=0.5;entryDx=0;entryDy=0;fontSize=11;fontColor=#000000;" parent="d9HaHP7tqBKfooOxbFVG-146" source="75cfZj7-eQxO16BHJha4-73" target="d9HaHP7tqBKfooOxbFVG-149" edge="1">
          <mxGeometry relative="1" as="geometry">
            <mxPoint x="3830" y="75.66" as="targetPoint" />
          </mxGeometry>
        </mxCell>
        <mxCell id="75cfZj7-eQxO16BHJha4-73" value="&lt;font color=&quot;#a6a61d&quot; style=&quot;font-size: 36px;&quot;&gt;A&lt;/font&gt;" style="ellipse;whiteSpace=wrap;html=1;aspect=fixed;fillColor=#ffffcc;strokeColor=#a6a61d;" parent="d9HaHP7tqBKfooOxbFVG-146" vertex="1">
          <mxGeometry x="3720" y="55.66" width="50" height="50" as="geometry" />
        </mxCell>
        <mxCell id="s65Mroft3krtSxNpBgLN-4" style="edgeStyle=orthogonalEdgeStyle;rounded=0;orthogonalLoop=1;jettySize=auto;html=1;exitX=0.5;exitY=1;exitDx=0;exitDy=0;entryX=0.5;entryY=1;entryDx=0;entryDy=0;" parent="d9HaHP7tqBKfooOxbFVG-146" source="75cfZj7-eQxO16BHJha4-79" target="d9HaHP7tqBKfooOxbFVG-149" edge="1">
          <mxGeometry relative="1" as="geometry" />
        </mxCell>
        <mxCell id="75cfZj7-eQxO16BHJha4-79" value="&lt;span style=&quot;font-size: 10px;&quot;&gt;Realizar ajustes conforme aplicável&lt;/span&gt;" style="rounded=1;whiteSpace=wrap;html=1;absoluteArcSize=1;arcSize=14;strokeWidth=2;fillColor=#dae8fc;strokeColor=#6c8ebf;" parent="d9HaHP7tqBKfooOxbFVG-146" vertex="1">
          <mxGeometry x="4130" y="55.66" width="100" height="50" as="geometry" />
        </mxCell>
        <mxCell id="REOEvnUnP1cKmhOiyPTP-4" value="MMT" style="swimlane;startSize=20;horizontal=0;html=1;rounded=0;" parent="REOEvnUnP1cKmhOiyPTP-1" vertex="1">
          <mxGeometry x="20" y="760" width="4560" height="160" as="geometry">
            <mxRectangle x="20" y="200" width="880" height="30" as="alternateBounds" />
          </mxGeometry>
        </mxCell>
        <mxCell id="7S2bCDqArC1DxhJI_XL0-52" style="edgeStyle=orthogonalEdgeStyle;rounded=0;orthogonalLoop=1;jettySize=auto;html=1;exitX=1;exitY=0.5;exitDx=0;exitDy=0;entryX=0;entryY=0.5;entryDx=0;entryDy=0;fontFamily=Helvetica;fontSize=11;fontColor=#000000;" parent="REOEvnUnP1cKmhOiyPTP-4" source="7S2bCDqArC1DxhJI_XL0-9" target="7S2bCDqArC1DxhJI_XL0-50" edge="1">
          <mxGeometry relative="1" as="geometry" />
        </mxCell>
        <mxCell id="7S2bCDqArC1DxhJI_XL0-9" value="&lt;span style=&quot;font-size: 10px;&quot;&gt;Verificar necessidade de treinamento operacional&lt;/span&gt;" style="rounded=1;whiteSpace=wrap;html=1;absoluteArcSize=1;arcSize=14;strokeWidth=2;fillColor=#dae8fc;strokeColor=#6c8ebf;" parent="REOEvnUnP1cKmhOiyPTP-4" vertex="1">
          <mxGeometry x="2530" y="60" width="100" height="50" as="geometry" />
        </mxCell>
        <mxCell id="75cfZj7-eQxO16BHJha4-70" style="edgeStyle=orthogonalEdgeStyle;rounded=0;orthogonalLoop=1;jettySize=auto;html=1;exitX=0.5;exitY=0;exitDx=0;exitDy=0;entryX=0.5;entryY=0;entryDx=0;entryDy=0;entryPerimeter=0;fontSize=11;fontColor=#000000;" parent="REOEvnUnP1cKmhOiyPTP-4" source="7S2bCDqArC1DxhJI_XL0-50" target="75cfZj7-eQxO16BHJha4-63" edge="1">
          <mxGeometry relative="1" as="geometry" />
        </mxCell>
        <mxCell id="75cfZj7-eQxO16BHJha4-71" value="Não" style="edgeLabel;html=1;align=center;verticalAlign=middle;resizable=0;points=[];fontSize=11;fontColor=#000000;" parent="75cfZj7-eQxO16BHJha4-70" vertex="1" connectable="0">
          <mxGeometry x="-0.8684" relative="1" as="geometry">
            <mxPoint x="22" as="offset" />
          </mxGeometry>
        </mxCell>
        <mxCell id="7S2bCDqArC1DxhJI_XL0-50" value="Necessário treinamento?" style="rhombus;whiteSpace=wrap;html=1;strokeColor=#a6a61d;fontSize=10;fillColor=#ffffcc;" parent="REOEvnUnP1cKmhOiyPTP-4" vertex="1">
          <mxGeometry x="2700" y="50" width="70" height="70" as="geometry" />
        </mxCell>
        <mxCell id="75cfZj7-eQxO16BHJha4-65" style="edgeStyle=orthogonalEdgeStyle;rounded=0;orthogonalLoop=1;jettySize=auto;html=1;exitX=1;exitY=0.5;exitDx=0;exitDy=0;entryX=0;entryY=0.5;entryDx=0;entryDy=0;fontSize=11;fontColor=#000000;" parent="REOEvnUnP1cKmhOiyPTP-4" source="7S2bCDqArC1DxhJI_XL0-51" target="75cfZj7-eQxO16BHJha4-64" edge="1">
          <mxGeometry relative="1" as="geometry" />
        </mxCell>
        <mxCell id="7S2bCDqArC1DxhJI_XL0-51" value="&lt;span style=&quot;font-size: 10px;&quot;&gt;Programar treinamento operacional&lt;/span&gt;" style="rounded=1;whiteSpace=wrap;html=1;absoluteArcSize=1;arcSize=14;strokeWidth=2;fillColor=#dae8fc;strokeColor=#6c8ebf;" parent="REOEvnUnP1cKmhOiyPTP-4" vertex="1">
          <mxGeometry x="2860" y="60" width="100" height="50" as="geometry" />
        </mxCell>
        <mxCell id="7S2bCDqArC1DxhJI_XL0-53" style="edgeStyle=orthogonalEdgeStyle;rounded=0;orthogonalLoop=1;jettySize=auto;html=1;exitX=1;exitY=0.5;exitDx=0;exitDy=0;entryX=0;entryY=0.5;entryDx=0;entryDy=0;fontSize=10;" parent="REOEvnUnP1cKmhOiyPTP-4" source="7S2bCDqArC1DxhJI_XL0-50" target="7S2bCDqArC1DxhJI_XL0-51" edge="1">
          <mxGeometry relative="1" as="geometry">
            <mxPoint x="2982" y="234.5" as="sourcePoint" />
            <mxPoint x="3042" y="506.5" as="targetPoint" />
          </mxGeometry>
        </mxCell>
        <mxCell id="7S2bCDqArC1DxhJI_XL0-54" value="Sim" style="edgeLabel;html=1;align=center;verticalAlign=middle;resizable=0;points=[];" parent="7S2bCDqArC1DxhJI_XL0-53" vertex="1" connectable="0">
          <mxGeometry x="-0.2533" y="3" relative="1" as="geometry">
            <mxPoint x="1" y="3" as="offset" />
          </mxGeometry>
        </mxCell>
        <mxCell id="XgBZHDR8JV6FvFQxuWRU-8" value="&lt;span style=&quot;font-size: 10px;&quot;&gt;Análise crítica dos riscos&lt;/span&gt;" style="rounded=1;whiteSpace=wrap;html=1;absoluteArcSize=1;arcSize=14;strokeWidth=2;fillColor=#dae8fc;strokeColor=#6c8ebf;" parent="REOEvnUnP1cKmhOiyPTP-4" vertex="1">
          <mxGeometry x="2080" y="60" width="100" height="50" as="geometry" />
        </mxCell>
        <mxCell id="75cfZj7-eQxO16BHJha4-62" style="edgeStyle=orthogonalEdgeStyle;rounded=0;orthogonalLoop=1;jettySize=auto;html=1;entryX=0;entryY=0.5;entryDx=0;entryDy=0;entryPerimeter=0;fontSize=11;fontColor=#000000;exitX=1;exitY=0.5;exitDx=0;exitDy=0;" parent="REOEvnUnP1cKmhOiyPTP-4" source="75cfZj7-eQxO16BHJha4-64" target="75cfZj7-eQxO16BHJha4-63" edge="1">
          <mxGeometry relative="1" as="geometry">
            <mxPoint x="3230" y="96" as="sourcePoint" />
          </mxGeometry>
        </mxCell>
        <mxCell id="75cfZj7-eQxO16BHJha4-63" value="Atualizar riscos no portal RMA" style="shape=cylinder3;whiteSpace=wrap;html=1;boundedLbl=1;backgroundOutline=1;size=9.666666666666572;shadow=0;strokeWidth=1;fontSize=11;fillColor=#f5f5f5;strokeColor=#666666;fontColor=#333333;" parent="REOEvnUnP1cKmhOiyPTP-4" vertex="1">
          <mxGeometry x="3220" y="46" width="70" height="78" as="geometry" />
        </mxCell>
        <mxCell id="75cfZj7-eQxO16BHJha4-64" value="&lt;span style=&quot;font-size: 10px;&quot;&gt;Considerar tempo para execução&lt;/span&gt;" style="rounded=1;whiteSpace=wrap;html=1;absoluteArcSize=1;arcSize=14;strokeWidth=2;fillColor=#dae8fc;strokeColor=#6c8ebf;" parent="REOEvnUnP1cKmhOiyPTP-4" vertex="1">
          <mxGeometry x="3040" y="60" width="100" height="50" as="geometry" />
        </mxCell>
        <mxCell id="3ngB4kAbQusvfdiSP5Xu-5" value="MIP" style="swimlane;startSize=20;horizontal=0;html=1;rounded=0;" parent="REOEvnUnP1cKmhOiyPTP-1" vertex="1">
          <mxGeometry x="20" y="920" width="4560" height="220" as="geometry">
            <mxRectangle x="20" y="330" width="780" height="30" as="alternateBounds" />
          </mxGeometry>
        </mxCell>
        <mxCell id="75cfZj7-eQxO16BHJha4-68" style="edgeStyle=orthogonalEdgeStyle;rounded=0;orthogonalLoop=1;jettySize=auto;html=1;exitX=0.5;exitY=0;exitDx=0;exitDy=0;entryX=0.5;entryY=0;entryDx=0;entryDy=0;entryPerimeter=0;fontSize=11;fontColor=#000000;" parent="3ngB4kAbQusvfdiSP5Xu-5" source="Oy1cbulnrsk7dN2Pcbd7-34" target="75cfZj7-eQxO16BHJha4-25" edge="1">
          <mxGeometry relative="1" as="geometry" />
        </mxCell>
        <mxCell id="75cfZj7-eQxO16BHJha4-69" value="Não" style="edgeLabel;html=1;align=center;verticalAlign=middle;resizable=0;points=[];fontSize=11;fontColor=#000000;" parent="75cfZj7-eQxO16BHJha4-68" vertex="1" connectable="0">
          <mxGeometry x="-0.867" y="-2" relative="1" as="geometry">
            <mxPoint x="8" as="offset" />
          </mxGeometry>
        </mxCell>
        <mxCell id="Oy1cbulnrsk7dN2Pcbd7-34" value="Necessário compra?" style="rhombus;whiteSpace=wrap;html=1;strokeColor=#a6a61d;fontSize=10;fillColor=#ffffcc;" parent="3ngB4kAbQusvfdiSP5Xu-5" vertex="1">
          <mxGeometry x="2700" y="51" width="70" height="70" as="geometry" />
        </mxCell>
        <mxCell id="7S2bCDqArC1DxhJI_XL0-23" style="edgeStyle=orthogonalEdgeStyle;rounded=0;orthogonalLoop=1;jettySize=auto;html=1;exitX=1;exitY=0.5;exitDx=0;exitDy=0;entryX=0;entryY=0.5;entryDx=0;entryDy=0;" parent="3ngB4kAbQusvfdiSP5Xu-5" source="7S2bCDqArC1DxhJI_XL0-10" target="Oy1cbulnrsk7dN2Pcbd7-34" edge="1">
          <mxGeometry relative="1" as="geometry" />
        </mxCell>
        <mxCell id="7S2bCDqArC1DxhJI_XL0-10" value="&lt;span style=&quot;font-size: 10px;&quot;&gt;Verificar disponibilidade de ferramental&lt;/span&gt;" style="rounded=1;whiteSpace=wrap;html=1;absoluteArcSize=1;arcSize=14;strokeWidth=2;fillColor=#dae8fc;strokeColor=#6c8ebf;" parent="3ngB4kAbQusvfdiSP5Xu-5" vertex="1">
          <mxGeometry x="2530" y="61" width="100" height="50" as="geometry" />
        </mxCell>
        <mxCell id="XgBZHDR8JV6FvFQxuWRU-11" value="&lt;span style=&quot;font-size: 10px;&quot;&gt;Análise crítica dos riscos&lt;/span&gt;" style="rounded=1;whiteSpace=wrap;html=1;absoluteArcSize=1;arcSize=14;strokeWidth=2;fillColor=#dae8fc;strokeColor=#6c8ebf;" parent="3ngB4kAbQusvfdiSP5Xu-5" vertex="1">
          <mxGeometry x="2080" y="60.5" width="100" height="50" as="geometry" />
        </mxCell>
        <mxCell id="3ngB4kAbQusvfdiSP5Xu-24" value="&lt;span style=&quot;font-size: 10px;&quot;&gt;Verificar se existe P.O. em andamento&lt;/span&gt;" style="rounded=1;whiteSpace=wrap;html=1;absoluteArcSize=1;arcSize=14;strokeWidth=2;fillColor=#dae8fc;strokeColor=#6c8ebf;" parent="3ngB4kAbQusvfdiSP5Xu-5" vertex="1">
          <mxGeometry x="2860" y="61" width="100" height="50" as="geometry" />
        </mxCell>
        <mxCell id="75cfZj7-eQxO16BHJha4-32" style="edgeStyle=orthogonalEdgeStyle;rounded=0;orthogonalLoop=1;jettySize=auto;html=1;exitX=1;exitY=0.5;exitDx=0;exitDy=0;entryX=0.5;entryY=1;entryDx=0;entryDy=0;fontSize=36;fontColor=#000000;" parent="3ngB4kAbQusvfdiSP5Xu-5" source="7S2bCDqArC1DxhJI_XL0-42" target="7S2bCDqArC1DxhJI_XL0-45" edge="1">
          <mxGeometry relative="1" as="geometry" />
        </mxCell>
        <mxCell id="7S2bCDqArC1DxhJI_XL0-42" value="&lt;span style=&quot;font-size: 10px;&quot;&gt;Abrir solicitação de compra&lt;/span&gt;" style="rounded=1;whiteSpace=wrap;html=1;absoluteArcSize=1;arcSize=14;strokeWidth=2;fillColor=#dae8fc;strokeColor=#6c8ebf;" parent="3ngB4kAbQusvfdiSP5Xu-5" vertex="1">
          <mxGeometry x="3130" y="147" width="100" height="50" as="geometry" />
        </mxCell>
        <mxCell id="75cfZj7-eQxO16BHJha4-31" style="edgeStyle=orthogonalEdgeStyle;rounded=0;orthogonalLoop=1;jettySize=auto;html=1;exitX=1;exitY=0.5;exitDx=0;exitDy=0;entryX=0;entryY=0.5;entryDx=0;entryDy=0;fontSize=36;fontColor=#000000;" parent="3ngB4kAbQusvfdiSP5Xu-5" source="7S2bCDqArC1DxhJI_XL0-35" target="7S2bCDqArC1DxhJI_XL0-45" edge="1">
          <mxGeometry relative="1" as="geometry" />
        </mxCell>
        <mxCell id="75cfZj7-eQxO16BHJha4-34" value="Sim" style="edgeLabel;html=1;align=center;verticalAlign=middle;resizable=0;points=[];fontSize=11;fontColor=#000000;" parent="75cfZj7-eQxO16BHJha4-31" vertex="1" connectable="0">
          <mxGeometry x="0.2466" y="-3" relative="1" as="geometry">
            <mxPoint x="-37" y="-3" as="offset" />
          </mxGeometry>
        </mxCell>
        <mxCell id="7S2bCDqArC1DxhJI_XL0-35" value="P.O. aberta?" style="rhombus;whiteSpace=wrap;html=1;strokeColor=#a6a61d;fontSize=10;fillColor=#ffffcc;" parent="3ngB4kAbQusvfdiSP5Xu-5" vertex="1">
          <mxGeometry x="3030" y="51" width="70" height="70" as="geometry" />
        </mxCell>
        <mxCell id="75cfZj7-eQxO16BHJha4-28" style="edgeStyle=orthogonalEdgeStyle;rounded=0;orthogonalLoop=1;jettySize=auto;html=1;exitX=1;exitY=0.5;exitDx=0;exitDy=0;entryX=0;entryY=0.5;entryDx=0;entryDy=0;fontSize=36;fontColor=#A6A61D;" parent="3ngB4kAbQusvfdiSP5Xu-5" source="3ngB4kAbQusvfdiSP5Xu-24" target="7S2bCDqArC1DxhJI_XL0-35" edge="1">
          <mxGeometry relative="1" as="geometry" />
        </mxCell>
        <mxCell id="7S2bCDqArC1DxhJI_XL0-43" style="edgeStyle=orthogonalEdgeStyle;rounded=0;orthogonalLoop=1;jettySize=auto;html=1;exitX=0.5;exitY=1;exitDx=0;exitDy=0;entryX=0;entryY=0.5;entryDx=0;entryDy=0;fontFamily=Helvetica;fontSize=11;fontColor=#000000;" parent="3ngB4kAbQusvfdiSP5Xu-5" source="7S2bCDqArC1DxhJI_XL0-35" target="7S2bCDqArC1DxhJI_XL0-42" edge="1">
          <mxGeometry relative="1" as="geometry" />
        </mxCell>
        <mxCell id="7S2bCDqArC1DxhJI_XL0-44" value="Não" style="edgeLabel;html=1;align=center;verticalAlign=middle;resizable=0;points=[];fontSize=11;fontFamily=Helvetica;fontColor=#000000;" parent="7S2bCDqArC1DxhJI_XL0-43" vertex="1" connectable="0">
          <mxGeometry x="0.0274" y="-1" relative="1" as="geometry">
            <mxPoint x="-9" y="-26" as="offset" />
          </mxGeometry>
        </mxCell>
        <mxCell id="75cfZj7-eQxO16BHJha4-35" style="edgeStyle=orthogonalEdgeStyle;rounded=0;orthogonalLoop=1;jettySize=auto;html=1;exitX=1;exitY=0.5;exitDx=0;exitDy=0;entryX=0;entryY=0.5;entryDx=0;entryDy=0;entryPerimeter=0;fontSize=11;fontColor=#000000;" parent="3ngB4kAbQusvfdiSP5Xu-5" source="7S2bCDqArC1DxhJI_XL0-45" target="75cfZj7-eQxO16BHJha4-25" edge="1">
          <mxGeometry relative="1" as="geometry" />
        </mxCell>
        <mxCell id="7S2bCDqArC1DxhJI_XL0-45" value="&lt;span style=&quot;font-size: 10px;&quot;&gt;Considerar tempo de entrega&lt;/span&gt;" style="rounded=1;whiteSpace=wrap;html=1;absoluteArcSize=1;arcSize=14;strokeWidth=2;fillColor=#dae8fc;strokeColor=#6c8ebf;" parent="3ngB4kAbQusvfdiSP5Xu-5" vertex="1">
          <mxGeometry x="3240" y="61" width="100" height="50" as="geometry" />
        </mxCell>
        <mxCell id="75cfZj7-eQxO16BHJha4-90" style="edgeStyle=orthogonalEdgeStyle;rounded=0;orthogonalLoop=1;jettySize=auto;html=1;exitX=1;exitY=0.5;exitDx=0;exitDy=0;exitPerimeter=0;entryX=0;entryY=0.5;entryDx=0;entryDy=0;entryPerimeter=0;fontSize=11;fontColor=#000000;" parent="3ngB4kAbQusvfdiSP5Xu-5" source="75cfZj7-eQxO16BHJha4-25" target="v3_SV2aUN1-4RCRF9CUd-21" edge="1">
          <mxGeometry relative="1" as="geometry" />
        </mxCell>
        <mxCell id="75cfZj7-eQxO16BHJha4-25" value="Atualizar riscos no portal RMA" style="shape=cylinder3;whiteSpace=wrap;html=1;boundedLbl=1;backgroundOutline=1;size=9.666666666666572;shadow=0;strokeWidth=1;fontSize=11;fillColor=#f5f5f5;strokeColor=#666666;fontColor=#333333;" parent="3ngB4kAbQusvfdiSP5Xu-5" vertex="1">
          <mxGeometry x="3420" y="47" width="70" height="78" as="geometry" />
        </mxCell>
        <mxCell id="75cfZj7-eQxO16BHJha4-29" style="edgeStyle=orthogonalEdgeStyle;rounded=0;orthogonalLoop=1;jettySize=auto;html=1;exitX=1;exitY=0.5;exitDx=0;exitDy=0;fontSize=10;entryX=0;entryY=0.5;entryDx=0;entryDy=0;" parent="3ngB4kAbQusvfdiSP5Xu-5" source="Oy1cbulnrsk7dN2Pcbd7-34" target="3ngB4kAbQusvfdiSP5Xu-24" edge="1">
          <mxGeometry relative="1" as="geometry">
            <mxPoint x="2780" y="-44" as="sourcePoint" />
            <mxPoint x="2810" y="137" as="targetPoint" />
          </mxGeometry>
        </mxCell>
        <mxCell id="75cfZj7-eQxO16BHJha4-30" value="Sim" style="edgeLabel;html=1;align=center;verticalAlign=middle;resizable=0;points=[];" parent="75cfZj7-eQxO16BHJha4-29" vertex="1" connectable="0">
          <mxGeometry x="-0.2533" y="3" relative="1" as="geometry">
            <mxPoint x="1" y="3" as="offset" />
          </mxGeometry>
        </mxCell>
        <mxCell id="v3_SV2aUN1-4RCRF9CUd-21" value="Continuidade do projeto" style="strokeWidth=2;html=1;shape=mxgraph.flowchart.start_2;whiteSpace=wrap;fillColor=#eeaaaa;strokeColor=#9f0d0d;labelPosition=center;verticalLabelPosition=bottom;align=center;verticalAlign=top;" parent="3ngB4kAbQusvfdiSP5Xu-5" vertex="1">
          <mxGeometry x="4290" y="71" width="30" height="30" as="geometry" />
        </mxCell>
        <mxCell id="XgBZHDR8JV6FvFQxuWRU-22" value="FAB" style="swimlane;startSize=20;horizontal=0;html=1;rounded=0;" parent="REOEvnUnP1cKmhOiyPTP-1" vertex="1">
          <mxGeometry x="20" y="1140" width="4560" height="140" as="geometry">
            <mxRectangle x="20" y="330" width="780" height="30" as="alternateBounds" />
          </mxGeometry>
        </mxCell>
        <mxCell id="XgBZHDR8JV6FvFQxuWRU-23" value="&lt;span style=&quot;font-size: 10px;&quot;&gt;Análise crítica dos riscos&lt;/span&gt;" style="rounded=1;whiteSpace=wrap;html=1;absoluteArcSize=1;arcSize=14;strokeWidth=2;fillColor=#dae8fc;strokeColor=#6c8ebf;" parent="XgBZHDR8JV6FvFQxuWRU-22" vertex="1">
          <mxGeometry x="2080" y="44.5" width="100" height="50" as="geometry" />
        </mxCell>
        <mxCell id="75cfZj7-eQxO16BHJha4-6" value="CQ" style="swimlane;startSize=20;horizontal=0;html=1;rounded=0;" parent="REOEvnUnP1cKmhOiyPTP-1" vertex="1">
          <mxGeometry x="20" y="1280" width="4560" height="140" as="geometry">
            <mxRectangle x="20" y="330" width="780" height="30" as="alternateBounds" />
          </mxGeometry>
        </mxCell>
        <mxCell id="75cfZj7-eQxO16BHJha4-7" value="&lt;span style=&quot;font-size: 10px;&quot;&gt;Análise crítica dos riscos&lt;/span&gt;" style="rounded=1;whiteSpace=wrap;html=1;absoluteArcSize=1;arcSize=14;strokeWidth=2;fillColor=#dae8fc;strokeColor=#6c8ebf;" parent="75cfZj7-eQxO16BHJha4-6" vertex="1">
          <mxGeometry x="2080" y="44.5" width="100" height="50" as="geometry" />
        </mxCell>
        <mxCell id="3ngB4kAbQusvfdiSP5Xu-11" value="AGA" style="swimlane;startSize=20;horizontal=0;html=1;rounded=0;" parent="REOEvnUnP1cKmhOiyPTP-1" vertex="1">
          <mxGeometry x="20" y="1420" width="4560" height="220" as="geometry">
            <mxRectangle x="20" y="360" width="780" height="30" as="alternateBounds" />
          </mxGeometry>
        </mxCell>
        <mxCell id="v3_SV2aUN1-4RCRF9CUd-20" style="edgeStyle=orthogonalEdgeStyle;rounded=0;orthogonalLoop=1;jettySize=auto;html=1;exitX=1;exitY=0.5;exitDx=0;exitDy=0;entryX=0;entryY=0.5;entryDx=0;entryDy=0;fontSize=10;" parent="3ngB4kAbQusvfdiSP5Xu-11" source="7S2bCDqArC1DxhJI_XL0-11" target="v3_SV2aUN1-4RCRF9CUd-18" edge="1">
          <mxGeometry relative="1" as="geometry">
            <mxPoint x="2892" y="103" as="targetPoint" />
            <mxPoint x="2852" y="103" as="sourcePoint" />
          </mxGeometry>
        </mxCell>
        <mxCell id="75cfZj7-eQxO16BHJha4-66" style="edgeStyle=orthogonalEdgeStyle;rounded=0;orthogonalLoop=1;jettySize=auto;html=1;exitX=0.5;exitY=0;exitDx=0;exitDy=0;entryX=0.5;entryY=0;entryDx=0;entryDy=0;entryPerimeter=0;fontSize=11;fontColor=#000000;" parent="3ngB4kAbQusvfdiSP5Xu-11" source="v3_SV2aUN1-4RCRF9CUd-18" target="75cfZj7-eQxO16BHJha4-59" edge="1">
          <mxGeometry relative="1" as="geometry" />
        </mxCell>
        <mxCell id="75cfZj7-eQxO16BHJha4-67" value="Não" style="edgeLabel;html=1;align=center;verticalAlign=middle;resizable=0;points=[];fontSize=11;fontColor=#000000;" parent="75cfZj7-eQxO16BHJha4-66" vertex="1" connectable="0">
          <mxGeometry x="-0.8196" y="-1" relative="1" as="geometry">
            <mxPoint x="-10" as="offset" />
          </mxGeometry>
        </mxCell>
        <mxCell id="v3_SV2aUN1-4RCRF9CUd-18" value="Nível baixo?" style="rhombus;whiteSpace=wrap;html=1;strokeColor=#a6a61d;fontSize=10;fillColor=#ffffcc;" parent="3ngB4kAbQusvfdiSP5Xu-11" vertex="1">
          <mxGeometry x="2700" y="52" width="70" height="70" as="geometry" />
        </mxCell>
        <mxCell id="7S2bCDqArC1DxhJI_XL0-11" value="&lt;span style=&quot;font-size: 10px;&quot;&gt;Verificar saldo de material em estoque&lt;/span&gt;" style="rounded=1;whiteSpace=wrap;html=1;absoluteArcSize=1;arcSize=14;strokeWidth=2;fillColor=#dae8fc;strokeColor=#6c8ebf;" parent="3ngB4kAbQusvfdiSP5Xu-11" vertex="1">
          <mxGeometry x="2530" y="62" width="100" height="50" as="geometry" />
        </mxCell>
        <mxCell id="75cfZj7-eQxO16BHJha4-48" value="&lt;span style=&quot;font-size: 10px;&quot;&gt;Verificar se existe P.O. em andamento&lt;/span&gt;" style="rounded=1;whiteSpace=wrap;html=1;absoluteArcSize=1;arcSize=14;strokeWidth=2;fillColor=#dae8fc;strokeColor=#6c8ebf;" parent="3ngB4kAbQusvfdiSP5Xu-11" vertex="1">
          <mxGeometry x="2860" y="62" width="100" height="50" as="geometry" />
        </mxCell>
        <mxCell id="75cfZj7-eQxO16BHJha4-50" value="&lt;span style=&quot;font-size: 10px;&quot;&gt;Abrir solicitação de compra&lt;/span&gt;" style="rounded=1;whiteSpace=wrap;html=1;absoluteArcSize=1;arcSize=14;strokeWidth=2;fillColor=#dae8fc;strokeColor=#6c8ebf;" parent="3ngB4kAbQusvfdiSP5Xu-11" vertex="1">
          <mxGeometry x="3130" y="148" width="100" height="50" as="geometry" />
        </mxCell>
        <mxCell id="75cfZj7-eQxO16BHJha4-53" value="P.O. aberta?" style="rhombus;whiteSpace=wrap;html=1;strokeColor=#a6a61d;fontSize=10;fillColor=#ffffcc;" parent="3ngB4kAbQusvfdiSP5Xu-11" vertex="1">
          <mxGeometry x="3030" y="52" width="70" height="70" as="geometry" />
        </mxCell>
        <mxCell id="75cfZj7-eQxO16BHJha4-54" style="edgeStyle=orthogonalEdgeStyle;rounded=0;orthogonalLoop=1;jettySize=auto;html=1;exitX=1;exitY=0.5;exitDx=0;exitDy=0;entryX=0;entryY=0.5;entryDx=0;entryDy=0;fontSize=36;fontColor=#A6A61D;" parent="3ngB4kAbQusvfdiSP5Xu-11" source="75cfZj7-eQxO16BHJha4-48" target="75cfZj7-eQxO16BHJha4-53" edge="1">
          <mxGeometry relative="1" as="geometry" />
        </mxCell>
        <mxCell id="75cfZj7-eQxO16BHJha4-55" style="edgeStyle=orthogonalEdgeStyle;rounded=0;orthogonalLoop=1;jettySize=auto;html=1;exitX=0.5;exitY=1;exitDx=0;exitDy=0;entryX=0;entryY=0.5;entryDx=0;entryDy=0;fontFamily=Helvetica;fontSize=11;fontColor=#000000;" parent="3ngB4kAbQusvfdiSP5Xu-11" source="75cfZj7-eQxO16BHJha4-53" target="75cfZj7-eQxO16BHJha4-50" edge="1">
          <mxGeometry relative="1" as="geometry" />
        </mxCell>
        <mxCell id="75cfZj7-eQxO16BHJha4-56" value="Não" style="edgeLabel;html=1;align=center;verticalAlign=middle;resizable=0;points=[];fontSize=11;fontFamily=Helvetica;fontColor=#000000;" parent="75cfZj7-eQxO16BHJha4-55" vertex="1" connectable="0">
          <mxGeometry x="0.0274" y="-1" relative="1" as="geometry">
            <mxPoint x="-9" y="-26" as="offset" />
          </mxGeometry>
        </mxCell>
        <mxCell id="75cfZj7-eQxO16BHJha4-58" value="&lt;span style=&quot;font-size: 10px;&quot;&gt;Considerar tempo de entrega&lt;/span&gt;" style="rounded=1;whiteSpace=wrap;html=1;absoluteArcSize=1;arcSize=14;strokeWidth=2;fillColor=#dae8fc;strokeColor=#6c8ebf;" parent="3ngB4kAbQusvfdiSP5Xu-11" vertex="1">
          <mxGeometry x="3240" y="62" width="100" height="50" as="geometry" />
        </mxCell>
        <mxCell id="75cfZj7-eQxO16BHJha4-49" style="edgeStyle=orthogonalEdgeStyle;rounded=0;orthogonalLoop=1;jettySize=auto;html=1;exitX=1;exitY=0.5;exitDx=0;exitDy=0;entryX=0.5;entryY=1;entryDx=0;entryDy=0;fontSize=36;fontColor=#000000;" parent="3ngB4kAbQusvfdiSP5Xu-11" source="75cfZj7-eQxO16BHJha4-50" target="75cfZj7-eQxO16BHJha4-58" edge="1">
          <mxGeometry relative="1" as="geometry" />
        </mxCell>
        <mxCell id="75cfZj7-eQxO16BHJha4-51" style="edgeStyle=orthogonalEdgeStyle;rounded=0;orthogonalLoop=1;jettySize=auto;html=1;exitX=1;exitY=0.5;exitDx=0;exitDy=0;entryX=0;entryY=0.5;entryDx=0;entryDy=0;fontSize=36;fontColor=#000000;" parent="3ngB4kAbQusvfdiSP5Xu-11" source="75cfZj7-eQxO16BHJha4-53" target="75cfZj7-eQxO16BHJha4-58" edge="1">
          <mxGeometry relative="1" as="geometry" />
        </mxCell>
        <mxCell id="75cfZj7-eQxO16BHJha4-52" value="Sim" style="edgeLabel;html=1;align=center;verticalAlign=middle;resizable=0;points=[];fontSize=11;fontColor=#000000;" parent="75cfZj7-eQxO16BHJha4-51" vertex="1" connectable="0">
          <mxGeometry x="0.2466" y="-3" relative="1" as="geometry">
            <mxPoint x="-37" y="-3" as="offset" />
          </mxGeometry>
        </mxCell>
        <mxCell id="75cfZj7-eQxO16BHJha4-59" value="Atualizar riscos no portal RMA" style="shape=cylinder3;whiteSpace=wrap;html=1;boundedLbl=1;backgroundOutline=1;size=9.666666666666572;shadow=0;strokeWidth=1;fontSize=11;fillColor=#f5f5f5;strokeColor=#666666;fontColor=#333333;" parent="3ngB4kAbQusvfdiSP5Xu-11" vertex="1">
          <mxGeometry x="3420" y="48" width="70" height="78" as="geometry" />
        </mxCell>
        <mxCell id="75cfZj7-eQxO16BHJha4-60" style="edgeStyle=orthogonalEdgeStyle;rounded=0;orthogonalLoop=1;jettySize=auto;html=1;exitX=1;exitY=0.5;exitDx=0;exitDy=0;fontSize=10;entryX=0;entryY=0.5;entryDx=0;entryDy=0;" parent="3ngB4kAbQusvfdiSP5Xu-11" source="v3_SV2aUN1-4RCRF9CUd-18" target="75cfZj7-eQxO16BHJha4-48" edge="1">
          <mxGeometry relative="1" as="geometry">
            <mxPoint x="2770" y="87" as="sourcePoint" />
            <mxPoint x="2740" y="-681" as="targetPoint" />
          </mxGeometry>
        </mxCell>
        <mxCell id="75cfZj7-eQxO16BHJha4-61" value="Sim" style="edgeLabel;html=1;align=center;verticalAlign=middle;resizable=0;points=[];" parent="75cfZj7-eQxO16BHJha4-60" vertex="1" connectable="0">
          <mxGeometry x="-0.2533" y="3" relative="1" as="geometry">
            <mxPoint x="1" y="3" as="offset" />
          </mxGeometry>
        </mxCell>
        <mxCell id="75cfZj7-eQxO16BHJha4-57" style="edgeStyle=orthogonalEdgeStyle;rounded=0;orthogonalLoop=1;jettySize=auto;html=1;exitX=1;exitY=0.5;exitDx=0;exitDy=0;entryX=0;entryY=0.5;entryDx=0;entryDy=0;entryPerimeter=0;fontSize=11;fontColor=#000000;" parent="3ngB4kAbQusvfdiSP5Xu-11" source="75cfZj7-eQxO16BHJha4-58" target="75cfZj7-eQxO16BHJha4-59" edge="1">
          <mxGeometry relative="1" as="geometry" />
        </mxCell>
        <mxCell id="3ngB4kAbQusvfdiSP5Xu-30" value="Planejamento" style="swimlane;startSize=20;horizontal=0;html=1;rounded=0;" parent="REOEvnUnP1cKmhOiyPTP-1" vertex="1">
          <mxGeometry x="20" y="1640" width="4560" height="140" as="geometry">
            <mxRectangle x="20" y="360" width="780" height="30" as="alternateBounds" />
          </mxGeometry>
        </mxCell>
        <mxCell id="7S2bCDqArC1DxhJI_XL0-73" style="edgeStyle=orthogonalEdgeStyle;rounded=0;orthogonalLoop=1;jettySize=auto;html=1;exitX=1;exitY=0.5;exitDx=0;exitDy=0;entryX=0;entryY=0.5;entryDx=0;entryDy=0;fontFamily=Helvetica;fontSize=11;fontColor=#000000;" parent="3ngB4kAbQusvfdiSP5Xu-30" source="7S2bCDqArC1DxhJI_XL0-12" target="7S2bCDqArC1DxhJI_XL0-71" edge="1">
          <mxGeometry relative="1" as="geometry" />
        </mxCell>
        <mxCell id="7S2bCDqArC1DxhJI_XL0-12" value="&lt;span style=&quot;font-size: 10px;&quot;&gt;Verificar tempo previsto para atividade&lt;/span&gt;" style="rounded=1;whiteSpace=wrap;html=1;absoluteArcSize=1;arcSize=14;strokeWidth=2;fillColor=#dae8fc;strokeColor=#6c8ebf;" parent="3ngB4kAbQusvfdiSP5Xu-30" vertex="1">
          <mxGeometry x="2530" y="63" width="100" height="50" as="geometry" />
        </mxCell>
        <mxCell id="7S2bCDqArC1DxhJI_XL0-74" style="edgeStyle=orthogonalEdgeStyle;rounded=0;orthogonalLoop=1;jettySize=auto;html=1;exitX=1;exitY=0.5;exitDx=0;exitDy=0;entryX=0;entryY=0.5;entryDx=0;entryDy=0;fontFamily=Helvetica;fontSize=11;fontColor=#000000;" parent="3ngB4kAbQusvfdiSP5Xu-30" source="7S2bCDqArC1DxhJI_XL0-71" target="7S2bCDqArC1DxhJI_XL0-72" edge="1">
          <mxGeometry relative="1" as="geometry" />
        </mxCell>
        <mxCell id="7S2bCDqArC1DxhJI_XL0-76" value="Sim" style="edgeLabel;html=1;align=center;verticalAlign=middle;resizable=0;points=[];fontSize=11;fontFamily=Helvetica;fontColor=#000000;" parent="7S2bCDqArC1DxhJI_XL0-74" vertex="1" connectable="0">
          <mxGeometry x="0.1412" relative="1" as="geometry">
            <mxPoint x="-11" as="offset" />
          </mxGeometry>
        </mxCell>
        <mxCell id="s65Mroft3krtSxNpBgLN-54" style="edgeStyle=orthogonalEdgeStyle;rounded=0;orthogonalLoop=1;jettySize=auto;html=1;exitX=0.5;exitY=0;exitDx=0;exitDy=0;entryX=0.5;entryY=0;entryDx=0;entryDy=0;entryPerimeter=0;" parent="3ngB4kAbQusvfdiSP5Xu-30" source="7S2bCDqArC1DxhJI_XL0-71" target="s65Mroft3krtSxNpBgLN-52" edge="1">
          <mxGeometry relative="1" as="geometry" />
        </mxCell>
        <mxCell id="s65Mroft3krtSxNpBgLN-55" value="Não" style="edgeLabel;html=1;align=center;verticalAlign=middle;resizable=0;points=[];" parent="s65Mroft3krtSxNpBgLN-54" vertex="1" connectable="0">
          <mxGeometry x="-0.7435" relative="1" as="geometry">
            <mxPoint x="7" as="offset" />
          </mxGeometry>
        </mxCell>
        <mxCell id="7S2bCDqArC1DxhJI_XL0-71" value="Necessário ajuste?" style="rhombus;whiteSpace=wrap;html=1;strokeColor=#a6a61d;fontSize=10;fillColor=#ffffcc;" parent="3ngB4kAbQusvfdiSP5Xu-30" vertex="1">
          <mxGeometry x="2700" y="53" width="70" height="70" as="geometry" />
        </mxCell>
        <mxCell id="s65Mroft3krtSxNpBgLN-53" style="edgeStyle=orthogonalEdgeStyle;rounded=0;orthogonalLoop=1;jettySize=auto;html=1;exitX=1;exitY=0.5;exitDx=0;exitDy=0;entryX=0;entryY=0.5;entryDx=0;entryDy=0;entryPerimeter=0;" parent="3ngB4kAbQusvfdiSP5Xu-30" source="7S2bCDqArC1DxhJI_XL0-72" target="s65Mroft3krtSxNpBgLN-52" edge="1">
          <mxGeometry relative="1" as="geometry" />
        </mxCell>
        <mxCell id="7S2bCDqArC1DxhJI_XL0-72" value="&lt;span style=&quot;font-size: 10px;&quot;&gt;Ajustar Chameleon&lt;/span&gt;&lt;span style=&quot;font-size: 10px;&quot;&gt;&lt;br&gt;&lt;/span&gt;" style="rounded=1;whiteSpace=wrap;html=1;absoluteArcSize=1;arcSize=14;strokeWidth=2;fillColor=#dae8fc;strokeColor=#6c8ebf;" parent="3ngB4kAbQusvfdiSP5Xu-30" vertex="1">
          <mxGeometry x="2860" y="63" width="100" height="50" as="geometry" />
        </mxCell>
        <mxCell id="s65Mroft3krtSxNpBgLN-52" value="Atualizar riscos no portal RMA" style="shape=cylinder3;whiteSpace=wrap;html=1;boundedLbl=1;backgroundOutline=1;size=9.666666666666572;shadow=0;strokeWidth=1;fontSize=11;fillColor=#f5f5f5;strokeColor=#666666;fontColor=#333333;" parent="3ngB4kAbQusvfdiSP5Xu-30" vertex="1">
          <mxGeometry x="3060" y="49" width="70" height="78" as="geometry" />
        </mxCell>
        <mxCell id="75cfZj7-eQxO16BHJha4-19" style="edgeStyle=orthogonalEdgeStyle;rounded=0;orthogonalLoop=1;jettySize=auto;html=1;exitX=1;exitY=0.5;exitDx=0;exitDy=0;entryX=0.5;entryY=0;entryDx=0;entryDy=0;fontSize=11;" parent="REOEvnUnP1cKmhOiyPTP-1" source="75cfZj7-eQxO16BHJha4-11" target="75cfZj7-eQxO16BHJha4-18" edge="1">
          <mxGeometry relative="1" as="geometry" />
        </mxCell>
        <mxCell id="75cfZj7-eQxO16BHJha4-20" value="Sim" style="edgeLabel;html=1;align=center;verticalAlign=middle;resizable=0;points=[];fontSize=11;" parent="75cfZj7-eQxO16BHJha4-19" vertex="1" connectable="0">
          <mxGeometry x="-0.9144" y="-1" relative="1" as="geometry">
            <mxPoint as="offset" />
          </mxGeometry>
        </mxCell>
        <mxCell id="v3_SV2aUN1-4RCRF9CUd-9" style="edgeStyle=orthogonalEdgeStyle;rounded=0;orthogonalLoop=1;jettySize=auto;html=1;entryX=0;entryY=0.5;entryDx=0;entryDy=0;fontSize=10;startArrow=none;exitX=0.5;exitY=1;exitDx=0;exitDy=0;" parent="REOEvnUnP1cKmhOiyPTP-1" source="75cfZj7-eQxO16BHJha4-1" target="7S2bCDqArC1DxhJI_XL0-13" edge="1">
          <mxGeometry relative="1" as="geometry">
            <mxPoint x="2640" y="398" as="sourcePoint" />
            <mxPoint x="3679" y="418" as="targetPoint" />
          </mxGeometry>
        </mxCell>
        <mxCell id="75cfZj7-eQxO16BHJha4-89" style="edgeStyle=orthogonalEdgeStyle;rounded=0;orthogonalLoop=1;jettySize=auto;html=1;exitX=0.5;exitY=1;exitDx=0;exitDy=0;entryX=0.5;entryY=0;entryDx=0;entryDy=0;entryPerimeter=0;fontSize=11;fontColor=#000000;" parent="REOEvnUnP1cKmhOiyPTP-1" source="75cfZj7-eQxO16BHJha4-84" target="v3_SV2aUN1-4RCRF9CUd-21" edge="1">
          <mxGeometry relative="1" as="geometry" />
        </mxCell>
        <mxCell id="75cfZj7-eQxO16BHJha4-95" value="Não" style="edgeLabel;html=1;align=center;verticalAlign=middle;resizable=0;points=[];fontSize=11;fontColor=#000000;" parent="75cfZj7-eQxO16BHJha4-89" vertex="1" connectable="0">
          <mxGeometry x="-0.8494" y="2" relative="1" as="geometry">
            <mxPoint x="-2" y="-7" as="offset" />
          </mxGeometry>
        </mxCell>
        <mxCell id="Wg8mZ3Y4Zicfu8KM_0Pd-2" style="edgeStyle=orthogonalEdgeStyle;rounded=0;orthogonalLoop=1;jettySize=auto;html=1;exitX=0.5;exitY=1;exitDx=0;exitDy=0;entryX=0.5;entryY=0;entryDx=0;entryDy=0;exitPerimeter=0;" parent="REOEvnUnP1cKmhOiyPTP-1" source="BcPstPzpljA3nbRgEFQv-5" target="nKnNB21cNStt8jU2whA4-7" edge="1">
          <mxGeometry relative="1" as="geometry">
            <mxPoint x="1460" y="152.76" as="sourcePoint" />
          </mxGeometry>
        </mxCell>
        <mxCell id="aexLbSk2Bx6_30zfnnaJ-12" style="edgeStyle=orthogonalEdgeStyle;rounded=0;orthogonalLoop=1;jettySize=auto;html=1;exitX=0.5;exitY=0;exitDx=0;exitDy=0;exitPerimeter=0;entryX=0.5;entryY=1;entryDx=0;entryDy=0;" parent="REOEvnUnP1cKmhOiyPTP-1" source="aexLbSk2Bx6_30zfnnaJ-9" target="s65Mroft3krtSxNpBgLN-5" edge="1">
          <mxGeometry relative="1" as="geometry">
            <mxPoint x="1855" y="152.76000000000005" as="targetPoint" />
          </mxGeometry>
        </mxCell>
        <mxCell id="aexLbSk2Bx6_30zfnnaJ-68" style="edgeStyle=orthogonalEdgeStyle;rounded=0;orthogonalLoop=1;jettySize=auto;html=1;exitX=0.5;exitY=0;exitDx=0;exitDy=0;entryX=0;entryY=0.5;entryDx=0;entryDy=0;" parent="REOEvnUnP1cKmhOiyPTP-1" source="aexLbSk2Bx6_30zfnnaJ-8" target="s65Mroft3krtSxNpBgLN-5" edge="1">
          <mxGeometry relative="1" as="geometry">
            <mxPoint x="1760" y="128" as="targetPoint" />
          </mxGeometry>
        </mxCell>
        <mxCell id="aexLbSk2Bx6_30zfnnaJ-70" value="Não" style="edgeLabel;html=1;align=center;verticalAlign=middle;resizable=0;points=[];" parent="aexLbSk2Bx6_30zfnnaJ-68" vertex="1" connectable="0">
          <mxGeometry x="-0.6254" y="1" relative="1" as="geometry">
            <mxPoint x="1" y="41" as="offset" />
          </mxGeometry>
        </mxCell>
        <mxCell id="s65Mroft3krtSxNpBgLN-45" style="edgeStyle=orthogonalEdgeStyle;rounded=0;orthogonalLoop=1;jettySize=auto;html=1;exitX=1;exitY=0.5;exitDx=0;exitDy=0;entryX=0;entryY=0.5;entryDx=0;entryDy=0;entryPerimeter=0;exitPerimeter=0;" parent="REOEvnUnP1cKmhOiyPTP-1" source="s65Mroft3krtSxNpBgLN-46" target="v3_SV2aUN1-4RCRF9CUd-21" edge="1">
          <mxGeometry relative="1" as="geometry">
            <Array as="points">
              <mxPoint x="3630" y="460" />
              <mxPoint x="3630" y="1006" />
            </Array>
          </mxGeometry>
        </mxCell>
        <mxCell id="s65Mroft3krtSxNpBgLN-50" style="edgeStyle=orthogonalEdgeStyle;rounded=0;orthogonalLoop=1;jettySize=auto;html=1;exitX=1;exitY=0.5;exitDx=0;exitDy=0;exitPerimeter=0;entryX=0;entryY=0.5;entryDx=0;entryDy=0;entryPerimeter=0;" parent="REOEvnUnP1cKmhOiyPTP-1" source="75cfZj7-eQxO16BHJha4-63" target="v3_SV2aUN1-4RCRF9CUd-21" edge="1">
          <mxGeometry relative="1" as="geometry">
            <Array as="points">
              <mxPoint x="3630" y="845" />
              <mxPoint x="3630" y="1006" />
            </Array>
          </mxGeometry>
        </mxCell>
        <mxCell id="s65Mroft3krtSxNpBgLN-51" style="edgeStyle=orthogonalEdgeStyle;rounded=0;orthogonalLoop=1;jettySize=auto;html=1;exitX=1;exitY=0.5;exitDx=0;exitDy=0;exitPerimeter=0;entryX=0;entryY=0.5;entryDx=0;entryDy=0;entryPerimeter=0;" parent="REOEvnUnP1cKmhOiyPTP-1" source="75cfZj7-eQxO16BHJha4-59" target="v3_SV2aUN1-4RCRF9CUd-21" edge="1">
          <mxGeometry relative="1" as="geometry">
            <Array as="points">
              <mxPoint x="3630" y="1507" />
              <mxPoint x="3630" y="1006" />
            </Array>
          </mxGeometry>
        </mxCell>
        <mxCell id="s65Mroft3krtSxNpBgLN-56" style="edgeStyle=orthogonalEdgeStyle;rounded=0;orthogonalLoop=1;jettySize=auto;html=1;exitX=1;exitY=0.5;exitDx=0;exitDy=0;exitPerimeter=0;entryX=0;entryY=0.5;entryDx=0;entryDy=0;entryPerimeter=0;" parent="REOEvnUnP1cKmhOiyPTP-1" source="s65Mroft3krtSxNpBgLN-52" target="v3_SV2aUN1-4RCRF9CUd-21" edge="1">
          <mxGeometry relative="1" as="geometry">
            <Array as="points">
              <mxPoint x="3630" y="1728" />
              <mxPoint x="3630" y="1006" />
            </Array>
          </mxGeometry>
        </mxCell>
        <mxCell id="s65Mroft3krtSxNpBgLN-57" style="edgeStyle=orthogonalEdgeStyle;rounded=0;orthogonalLoop=1;jettySize=auto;html=1;exitX=0.5;exitY=0;exitDx=0;exitDy=0;exitPerimeter=0;entryX=0.5;entryY=0;entryDx=0;entryDy=0;" parent="REOEvnUnP1cKmhOiyPTP-1" source="75cfZj7-eQxO16BHJha4-83" target="75cfZj7-eQxO16BHJha4-1" edge="1">
          <mxGeometry relative="1" as="geometry" />
        </mxCell>
        <mxCell id="Oy1cbulnrsk7dN2Pcbd7-20" style="edgeStyle=orthogonalEdgeStyle;rounded=0;orthogonalLoop=1;jettySize=auto;html=1;exitX=0.5;exitY=0;exitDx=0;exitDy=0;entryX=0.5;entryY=1;entryDx=0;entryDy=0;exitPerimeter=0;" parent="REOEvnUnP1cKmhOiyPTP-1" source="nKnNB21cNStt8jU2whA4-4" target="v3_SV2aUN1-4RCRF9CUd-10" edge="1">
          <mxGeometry relative="1" as="geometry">
            <mxPoint x="688" y="435" as="targetPoint" />
            <mxPoint x="688" y="387.73" as="sourcePoint" />
          </mxGeometry>
        </mxCell>
      </root>
    </mxGraphModel>
  </diagram>
</mxfile>
